<svg width="12" height="12" viewBox="0 0 12 12" fill="none" xmlns="http://www.w3.org/2000/svg">
<mask id="mask0" mask-type="alpha" maskUnits="userSpaceOnUse" x="0" y="0" width="12" height="12">
<path d="M11.1023 3.8246C11.2167 3.60658 11.2777 3.36365 11.2802 3.11645C11.2802 1.7738 9.61281 0.720077 7.42859 0.720077C6.72287 0.71576 6.02227 0.84246 5.36108 1.09398C5.09567 1.05936 4.82833 1.04233 4.56076 1.04299C2.38765 1.04299 0.720306 2.09672 0.720306 3.43936C0.721636 3.67498 0.774815 3.9073 0.875925 4.11918C0.668311 4.54769 0.668311 5.05032 0.875925 5.47883C0.77161 5.68752 0.718227 5.91878 0.720306 6.15298C0.721636 6.3886 0.774815 6.62092 0.875925 6.83281C0.771108 7.04536 0.717747 7.28041 0.720306 7.51829C0.723176 7.75437 0.77827 7.98675 0.881483 8.19811C0.776631 8.41291 0.721493 8.64935 0.720306 8.88926C0.720306 10.2319 2.38765 11.28 4.56076 11.28C6.31703 11.28 7.76762 10.5832 8.24003 9.58042C9.99074 9.35381 11.269 8.40772 11.269 7.2407C11.2684 7.00253 11.2132 6.7678 11.1079 6.55521C11.2152 6.34692 11.2742 6.11626 11.2802 5.88105C11.2822 5.64685 11.2289 5.41559 11.1245 5.2069C11.2256 4.99501 11.2788 4.7627 11.2802 4.52708C11.277 4.28177 11.216 4.04083 11.1023 3.8246ZM4.56076 1.46788C6.42263 1.46788 7.98993 2.37431 7.98993 3.43936C7.99168 3.51588 7.98231 3.59224 7.96214 3.66597C7.94972 3.75103 7.92342 3.83337 7.88433 3.90957C7.85519 3.98464 7.81591 4.0552 7.76762 4.11918C7.66377 4.27124 7.5404 4.40843 7.4008 4.52708L7.21739 4.6857C7.15365 4.73367 7.0868 4.7772 7.01731 4.816C6.65718 5.01879 6.26944 5.1658 5.86684 5.25222C5.66722 5.30051 5.46492 5.33645 5.26104 5.35986C5.02873 5.38942 4.79487 5.40456 4.56076 5.40518C4.32676 5.40644 4.0929 5.39319 3.86047 5.36552C3.65648 5.34025 3.45418 5.30242 3.25467 5.25222C2.8526 5.15872 2.46663 5.00402 2.10976 4.79334C2.03996 4.76381 1.97298 4.72778 1.90968 4.6857C1.84538 4.64499 1.78408 4.59955 1.72627 4.54974C1.58354 4.42575 1.45989 4.28061 1.35946 4.11918C1.31116 4.0552 1.27188 3.98464 1.24274 3.90957C1.20365 3.83337 1.17735 3.75103 1.16493 3.66597C1.14476 3.59224 1.13539 3.51588 1.13714 3.43936C1.13714 2.35165 2.6711 1.46788 4.56076 1.46788ZM1.16493 4.5724C1.22946 4.6534 1.30007 4.72917 1.37613 4.79901L1.54842 4.93497C1.60402 4.9834 1.66351 5.02699 1.72627 5.06527C1.97272 5.23579 2.23989 5.3729 2.52104 5.47316C2.62418 5.51771 2.72999 5.55556 2.83783 5.58647C2.97618 5.63169 3.11728 5.66764 3.26023 5.6941C3.68802 5.78362 4.1241 5.82541 4.56076 5.81874C4.99801 5.81951 5.43406 5.77202 5.86129 5.67711C6.00194 5.6557 6.14115 5.62543 6.27812 5.58647C6.38596 5.55556 6.49177 5.51771 6.59492 5.47316C6.87607 5.3729 7.14323 5.23579 7.38969 5.06527C7.45244 5.02699 7.51194 4.9834 7.56754 4.93497L7.73983 4.79901C7.81397 4.72895 7.88272 4.65319 7.94547 4.5724C7.96564 4.64612 7.97501 4.72249 7.97326 4.79901C7.98147 4.87431 7.98147 4.95031 7.97326 5.02561C7.95542 5.10819 7.92741 5.18814 7.88989 5.26355C7.86052 5.33917 7.82326 5.41134 7.77873 5.47883C7.6745 5.62889 7.55114 5.76415 7.41192 5.88105C7.35575 5.9346 7.29429 5.98207 7.22851 6.02268C7.16488 6.07253 7.09804 6.11795 7.02843 6.15865C6.65405 6.37544 6.24914 6.53213 5.82794 6.62319C5.60513 6.67873 5.37843 6.71661 5.14989 6.7365C4.96546 6.75921 4.77987 6.77056 4.5941 6.77049C4.40835 6.7704 4.22276 6.75905 4.03832 6.7365C3.80788 6.71714 3.5793 6.67925 3.35471 6.62319C2.91608 6.5379 2.49382 6.38104 2.1042 6.15865C2.03459 6.11795 1.96775 6.07253 1.90412 6.02268C1.83834 5.98207 1.77688 5.9346 1.72071 5.88105C1.57869 5.76721 1.45494 5.63151 1.3539 5.47883C1.30865 5.40776 1.27137 5.33175 1.24274 5.25222C1.2043 5.17523 1.17625 5.09328 1.15937 5.00862C1.15116 4.93521 1.15116 4.86108 1.15937 4.78768C1.1514 4.716 1.15327 4.64355 1.16493 4.5724ZM1.16493 5.93204L1.37613 6.15298L1.54842 6.29461L1.72627 6.42491C1.98409 6.59928 2.26229 6.74011 2.55439 6.84413C2.66163 6.88782 2.77109 6.92564 2.8823 6.95744C3.01568 6.9971 3.16019 7.03675 3.30469 7.06508C4.13714 7.23876 4.99549 7.23876 5.82794 7.06508C5.978 7.06508 6.11695 6.9971 6.25589 6.95744C6.36709 6.92564 6.47655 6.88782 6.5838 6.84413C6.86819 6.73841 7.13883 6.59762 7.38969 6.42491L7.56754 6.29461L7.73983 6.15298C7.81447 6.08168 7.88499 6.00602 7.95102 5.92638C7.95924 6.00168 7.95924 6.07768 7.95102 6.15298C7.95343 6.31428 7.91718 6.47374 7.84543 6.61753C7.81606 6.69315 7.77879 6.76532 7.73427 6.83281C7.62701 6.99252 7.49572 7.134 7.34522 7.25203C7.28754 7.30371 7.22624 7.35104 7.16182 7.39366L6.96729 7.52396C6.21564 7.93319 5.37387 8.13989 4.52185 8.12447C3.68436 8.13048 2.8588 7.92205 2.12088 7.51829L1.92635 7.38799C1.86193 7.34538 1.80063 7.29804 1.74294 7.24636C1.59077 7.13025 1.45919 6.98846 1.3539 6.82714C1.30937 6.75965 1.27211 6.68748 1.24274 6.61186C1.20566 6.54023 1.17765 6.46408 1.15937 6.38526C1.12971 6.23951 1.12971 6.08912 1.15937 5.94337L1.16493 5.93204ZM1.16493 7.28602C1.23718 7.36533 1.30943 7.44464 1.3928 7.52396L1.56509 7.65992C1.62303 7.70786 1.68433 7.75141 1.7485 7.79022C2.59738 8.31237 3.5752 8.57579 4.56631 8.54935C5.5592 8.57593 6.53884 8.31253 7.38969 7.79022C7.45386 7.75141 7.51516 7.70786 7.57309 7.65992L7.74539 7.52396C7.82699 7.44845 7.90315 7.36704 7.97326 7.28035C7.98147 7.35566 7.98147 7.43166 7.97326 7.50696C7.97267 7.58895 7.96335 7.67063 7.94547 7.75056C7.92763 7.83314 7.89962 7.91309 7.8621 7.9885C7.82864 8.06138 7.78962 8.13147 7.74539 8.19811C7.24518 8.94025 5.98356 9.47844 4.54408 9.47844C3.10461 9.47844 1.84299 8.91193 1.34834 8.19811C1.31553 8.13169 1.29125 8.06124 1.27609 7.9885C1.23857 7.91309 1.21056 7.83314 1.19272 7.75056C1.16621 7.67535 1.14758 7.5975 1.13714 7.51829C1.1354 7.44024 1.14286 7.36226 1.15937 7.28602H1.16493ZM4.56631 10.8551C2.70445 10.8551 1.13714 9.95432 1.13714 8.88926C1.13813 8.80917 1.14744 8.72941 1.16493 8.65133C2.07925 9.52837 3.30736 9.98321 4.56076 9.909C5.81027 9.97938 7.03352 9.52485 7.94547 8.65133C7.96335 8.73126 7.97267 8.81294 7.97326 8.89493C7.98993 9.95432 6.42263 10.8551 4.56076 10.8551H4.56631ZM8.39009 9.15553C8.39857 9.07266 8.39857 8.98912 8.39009 8.90626C8.3882 8.67071 8.33505 8.43852 8.23447 8.22644C9.20363 8.15403 10.1159 7.73229 10.8077 7.03675C10.8252 7.11484 10.8345 7.1946 10.8355 7.27469C10.8522 8.1358 9.79066 8.89493 8.38453 9.13853L8.39009 9.15553ZM10.83 6.13599C10.8066 6.22377 10.771 6.3077 10.7244 6.38526C10.6909 6.45814 10.6519 6.52822 10.6077 6.59487C10.0401 7.26276 9.24615 7.68765 8.38453 7.78455C8.39928 7.70029 8.40856 7.61513 8.41232 7.52962C8.41084 7.30619 8.36152 7.08579 8.26782 6.88379C8.97465 6.79883 9.6532 6.55084 10.252 6.15865C10.3146 6.12236 10.3741 6.08066 10.4298 6.03401L10.6021 5.89239C10.6837 5.81887 10.7598 5.73934 10.83 5.65445C10.8385 5.72973 10.8385 5.80577 10.83 5.88105C10.8363 5.96035 10.8345 6.0401 10.8244 6.11899L10.83 6.13599ZM10.83 4.77068C10.8121 4.85326 10.7841 4.93321 10.7466 5.00862C10.7172 5.08423 10.68 5.15641 10.6354 5.22389C10.5273 5.38106 10.3982 5.52215 10.252 5.64312L10.063 5.77908C9.99925 5.82705 9.93241 5.87058 9.86291 5.90938C9.40143 6.16672 8.89913 6.33931 8.37898 6.41925C8.39402 6.33693 8.40331 6.25363 8.40677 6.16998C8.40885 5.93577 8.35546 5.70451 8.25115 5.49582C8.25115 5.49582 8.25115 5.49582 8.25115 5.46183L8.5346 5.42218C8.6958 5.39562 8.85539 5.35968 9.01257 5.31454C9.13119 5.28545 9.24809 5.24952 9.36271 5.2069C9.66424 5.10211 9.95176 4.95938 10.2186 4.78201C10.284 4.74517 10.3455 4.7015 10.402 4.65171C10.4618 4.60957 10.5193 4.56418 10.5743 4.51575L10.8077 4.27781C10.8301 4.36473 10.8413 4.45422 10.8411 4.54407C10.8444 4.61415 10.8407 4.68439 10.83 4.75368V4.77068ZM10.83 3.39971C10.811 3.48096 10.7811 3.55913 10.741 3.63198C10.7096 3.70588 10.6704 3.77615 10.6243 3.84159C10.5143 3.99389 10.3854 4.13099 10.2408 4.24948L10.0574 4.38545L9.8518 4.51575C9.44564 4.73761 9.00912 4.89611 8.55683 4.98596H8.39565C8.39565 4.91797 8.39565 4.85566 8.39565 4.78768C8.39615 4.55674 8.34681 4.32852 8.25115 4.11918C8.35226 3.9073 8.40544 3.67498 8.40677 3.43936C8.40677 2.47628 7.52863 1.6605 6.23922 1.27526C6.63023 1.1903 7.02879 1.14664 7.42859 1.14497C9.2849 1.14497 10.8522 2.04573 10.8522 3.11645C10.8524 3.2063 10.8412 3.29579 10.8189 3.38271L10.83 3.39971ZM2.94343 4.6857C2.87804 4.63571 2.84581 4.55247 2.86007 4.47043C2.85273 4.43876 2.85273 4.40579 2.86007 4.37412L2.94343 4.20416L3.0657 3.91524L3.16575 3.71696C3.17409 3.69677 3.18751 3.67919 3.20465 3.66597L3.27134 3.62065H3.35471H5.29995C5.85573 3.62065 6.27812 3.35439 6.27812 3.12211C6.25378 2.98576 6.16405 2.87091 6.03914 2.81619C5.81398 2.68657 5.55843 2.62193 5.29995 2.62924H4.57187H4.20506L4.0939 2.85585L4.055 2.9295L3.86603 3.26374C3.83058 3.33359 3.75977 3.37734 3.68262 3.37705C3.65167 3.38546 3.61909 3.38546 3.58814 3.37705C3.48583 3.32185 3.44617 3.193 3.49921 3.08812L3.57147 2.88984L3.66595 2.70856L3.69374 2.6519L3.81045 2.41963L3.87715 2.295C3.88549 2.27481 3.89891 2.25723 3.91605 2.24401C3.93506 2.22447 3.95774 2.20906 3.98274 2.19869C4.00649 2.19291 4.03125 2.19291 4.055 2.19869H5.27216C5.76541 2.16119 6.24528 2.37294 6.55601 2.76521C6.61188 2.84603 6.64807 2.93924 6.66161 3.03714C6.66436 3.06539 6.66436 3.09386 6.66161 3.12211C6.66707 3.17105 6.66707 3.22047 6.66161 3.26941C6.55281 3.59546 6.28909 3.84294 5.96133 3.92657C5.78377 3.99639 5.59579 4.03471 5.40555 4.03987H3.68262L3.47698 4.07386L3.34915 4.31747L3.22132 4.5724C3.18688 4.6432 3.11542 4.68734 3.03792 4.6857C3.00696 4.69411 2.97439 4.69411 2.94343 4.6857Z" fill="white"/>
</mask>
<g mask="url(#mask0)">
<path d="M11.1023 3.8246C11.2167 3.60658 11.2777 3.36365 11.2802 3.11645C11.2802 1.7738 9.61281 0.720077 7.42859 0.720077C6.72287 0.71576 6.02227 0.84246 5.36108 1.09398C5.09567 1.05936 4.82833 1.04233 4.56076 1.04299C2.38765 1.04299 0.720306 2.09672 0.720306 3.43936C0.721636 3.67498 0.774815 3.9073 0.875925 4.11918C0.668311 4.54769 0.668311 5.05032 0.875925 5.47883C0.77161 5.68752 0.718227 5.91878 0.720306 6.15298C0.721636 6.3886 0.774815 6.62092 0.875925 6.83281C0.771108 7.04536 0.717747 7.28041 0.720306 7.51829C0.723176 7.75437 0.77827 7.98675 0.881483 8.19811C0.776631 8.41291 0.721493 8.64935 0.720306 8.88926C0.720306 10.2319 2.38765 11.28 4.56076 11.28C6.31703 11.28 7.76762 10.5832 8.24003 9.58042C9.99074 9.35381 11.269 8.40772 11.269 7.2407C11.2684 7.00253 11.2132 6.7678 11.1079 6.55521C11.2152 6.34692 11.2742 6.11626 11.2802 5.88105C11.2822 5.64685 11.2289 5.41559 11.1245 5.2069C11.2256 4.99501 11.2788 4.7627 11.2802 4.52708C11.277 4.28177 11.216 4.04083 11.1023 3.8246ZM4.56076 1.46788C6.42263 1.46788 7.98993 2.37431 7.98993 3.43936C7.99168 3.51588 7.98231 3.59224 7.96214 3.66597C7.94972 3.75103 7.92342 3.83337 7.88433 3.90957C7.85519 3.98464 7.81591 4.0552 7.76762 4.11918C7.66377 4.27124 7.5404 4.40843 7.4008 4.52708L7.21739 4.6857C7.15365 4.73367 7.0868 4.7772 7.01731 4.816C6.65718 5.01879 6.26944 5.1658 5.86684 5.25222C5.66722 5.30051 5.46492 5.33645 5.26104 5.35986C5.02873 5.38942 4.79487 5.40456 4.56076 5.40518C4.32676 5.40644 4.0929 5.39319 3.86047 5.36552C3.65648 5.34025 3.45418 5.30242 3.25467 5.25222C2.8526 5.15872 2.46663 5.00402 2.10976 4.79334C2.03996 4.76381 1.97298 4.72778 1.90968 4.6857C1.84538 4.64499 1.78408 4.59955 1.72627 4.54974C1.58354 4.42575 1.45989 4.28061 1.35946 4.11918C1.31116 4.0552 1.27188 3.98464 1.24274 3.90957C1.20365 3.83337 1.17735 3.75103 1.16493 3.66597C1.14476 3.59224 1.13539 3.51588 1.13714 3.43936C1.13714 2.35165 2.6711 1.46788 4.56076 1.46788ZM1.16493 4.5724C1.22946 4.6534 1.30007 4.72917 1.37613 4.79901L1.54842 4.93497C1.60402 4.9834 1.66351 5.02699 1.72627 5.06527C1.97272 5.23579 2.23989 5.3729 2.52104 5.47316C2.62418 5.51771 2.72999 5.55556 2.83783 5.58647C2.97618 5.63169 3.11728 5.66764 3.26023 5.6941C3.68802 5.78362 4.1241 5.82541 4.56076 5.81874C4.99801 5.81951 5.43406 5.77202 5.86129 5.67711C6.00194 5.6557 6.14115 5.62543 6.27812 5.58647C6.38596 5.55556 6.49177 5.51771 6.59492 5.47316C6.87607 5.3729 7.14323 5.23579 7.38969 5.06527C7.45244 5.02699 7.51194 4.9834 7.56754 4.93497L7.73983 4.79901C7.81397 4.72895 7.88272 4.65319 7.94547 4.5724C7.96564 4.64612 7.97501 4.72249 7.97326 4.79901C7.98147 4.87431 7.98147 4.95031 7.97326 5.02561C7.95542 5.10819 7.92741 5.18814 7.88989 5.26355C7.86052 5.33917 7.82326 5.41134 7.77873 5.47883C7.6745 5.62889 7.55114 5.76415 7.41192 5.88105C7.35575 5.9346 7.29429 5.98207 7.22851 6.02268C7.16488 6.07253 7.09804 6.11795 7.02843 6.15865C6.65405 6.37544 6.24914 6.53213 5.82794 6.62319C5.60513 6.67873 5.37843 6.71661 5.14989 6.7365C4.96546 6.75921 4.77987 6.77056 4.5941 6.77049C4.40835 6.7704 4.22276 6.75905 4.03832 6.7365C3.80788 6.71714 3.5793 6.67925 3.35471 6.62319C2.91608 6.5379 2.49382 6.38104 2.1042 6.15865C2.03459 6.11795 1.96775 6.07253 1.90412 6.02268C1.83834 5.98207 1.77688 5.9346 1.72071 5.88105C1.57869 5.76721 1.45494 5.63151 1.3539 5.47883C1.30865 5.40776 1.27137 5.33175 1.24274 5.25222C1.2043 5.17523 1.17625 5.09328 1.15937 5.00862C1.15116 4.93521 1.15116 4.86108 1.15937 4.78768C1.1514 4.716 1.15327 4.64355 1.16493 4.5724ZM1.16493 5.93204L1.37613 6.15298L1.54842 6.29461L1.72627 6.42491C1.98409 6.59928 2.26229 6.74011 2.55439 6.84413C2.66163 6.88782 2.77109 6.92564 2.8823 6.95744C3.01568 6.9971 3.16019 7.03675 3.30469 7.06508C4.13714 7.23876 4.99549 7.23876 5.82794 7.06508C5.978 7.06508 6.11695 6.9971 6.25589 6.95744C6.36709 6.92564 6.47655 6.88782 6.5838 6.84413C6.86819 6.73841 7.13883 6.59762 7.38969 6.42491L7.56754 6.29461L7.73983 6.15298C7.81447 6.08168 7.88499 6.00602 7.95102 5.92638C7.95924 6.00168 7.95924 6.07768 7.95102 6.15298C7.95343 6.31428 7.91718 6.47374 7.84543 6.61753C7.81606 6.69315 7.77879 6.76532 7.73427 6.83281C7.62701 6.99252 7.49572 7.134 7.34522 7.25203C7.28754 7.30371 7.22624 7.35104 7.16182 7.39366L6.96729 7.52396C6.21564 7.93319 5.37387 8.13989 4.52185 8.12447C3.68436 8.13048 2.8588 7.92205 2.12088 7.51829L1.92635 7.38799C1.86193 7.34538 1.80063 7.29804 1.74294 7.24636C1.59077 7.13025 1.45919 6.98846 1.3539 6.82714C1.30937 6.75965 1.27211 6.68748 1.24274 6.61186C1.20566 6.54023 1.17765 6.46408 1.15937 6.38526C1.12971 6.23951 1.12971 6.08912 1.15937 5.94337L1.16493 5.93204ZM1.16493 7.28602C1.23718 7.36533 1.30943 7.44464 1.3928 7.52396L1.56509 7.65992C1.62303 7.70786 1.68433 7.75141 1.7485 7.79022C2.59738 8.31237 3.5752 8.57579 4.56631 8.54935C5.5592 8.57593 6.53884 8.31253 7.38969 7.79022C7.45386 7.75141 7.51516 7.70786 7.57309 7.65992L7.74539 7.52396C7.82699 7.44845 7.90315 7.36704 7.97326 7.28035C7.98147 7.35566 7.98147 7.43166 7.97326 7.50696C7.97267 7.58895 7.96335 7.67063 7.94547 7.75056C7.92763 7.83314 7.89962 7.91309 7.8621 7.9885C7.82864 8.06138 7.78962 8.13147 7.74539 8.19811C7.24518 8.94025 5.98356 9.47844 4.54408 9.47844C3.10461 9.47844 1.84299 8.91193 1.34834 8.19811C1.31553 8.13169 1.29125 8.06124 1.27609 7.9885C1.23857 7.91309 1.21056 7.83314 1.19272 7.75056C1.16621 7.67535 1.14758 7.5975 1.13714 7.51829C1.1354 7.44024 1.14286 7.36226 1.15937 7.28602H1.16493ZM4.56631 10.8551C2.70445 10.8551 1.13714 9.95432 1.13714 8.88926C1.13813 8.80917 1.14744 8.72941 1.16493 8.65133C2.07925 9.52837 3.30736 9.98321 4.56076 9.909C5.81027 9.97938 7.03352 9.52485 7.94547 8.65133C7.96335 8.73126 7.97267 8.81294 7.97326 8.89493C7.98993 9.95432 6.42263 10.8551 4.56076 10.8551H4.56631ZM8.39009 9.15553C8.39857 9.07266 8.39857 8.98912 8.39009 8.90626C8.3882 8.67071 8.33505 8.43852 8.23447 8.22644C9.20363 8.15403 10.1159 7.73229 10.8077 7.03675C10.8252 7.11484 10.8345 7.1946 10.8355 7.27469C10.8522 8.1358 9.79066 8.89493 8.38453 9.13853L8.39009 9.15553ZM10.83 6.13599C10.8066 6.22377 10.771 6.3077 10.7244 6.38526C10.6909 6.45814 10.6519 6.52822 10.6077 6.59487C10.0401 7.26276 9.24615 7.68765 8.38453 7.78455C8.39928 7.70029 8.40856 7.61513 8.41232 7.52962C8.41084 7.30619 8.36152 7.08579 8.26782 6.88379C8.97465 6.79883 9.6532 6.55084 10.252 6.15865C10.3146 6.12236 10.3741 6.08066 10.4298 6.03401L10.6021 5.89239C10.6837 5.81887 10.7598 5.73934 10.83 5.65445C10.8385 5.72973 10.8385 5.80577 10.83 5.88105C10.8363 5.96035 10.8345 6.0401 10.8244 6.11899L10.83 6.13599ZM10.83 4.77068C10.8121 4.85326 10.7841 4.93321 10.7466 5.00862C10.7172 5.08423 10.68 5.15641 10.6354 5.22389C10.5273 5.38106 10.3982 5.52215 10.252 5.64312L10.063 5.77908C9.99925 5.82705 9.93241 5.87058 9.86291 5.90938C9.40143 6.16672 8.89913 6.33931 8.37898 6.41925C8.39402 6.33693 8.40331 6.25363 8.40677 6.16998C8.40885 5.93577 8.35546 5.70451 8.25115 5.49582C8.25115 5.49582 8.25115 5.49582 8.25115 5.46183L8.5346 5.42218C8.6958 5.39562 8.85539 5.35968 9.01257 5.31454C9.13119 5.28545 9.24809 5.24952 9.36271 5.2069C9.66424 5.10211 9.95176 4.95938 10.2186 4.78201C10.284 4.74517 10.3455 4.7015 10.402 4.65171C10.4618 4.60957 10.5193 4.56418 10.5743 4.51575L10.8077 4.27781C10.8301 4.36473 10.8413 4.45422 10.8411 4.54407C10.8444 4.61415 10.8407 4.68439 10.83 4.75368V4.77068ZM10.83 3.39971C10.811 3.48096 10.7811 3.55913 10.741 3.63198C10.7096 3.70588 10.6704 3.77615 10.6243 3.84159C10.5143 3.99389 10.3854 4.13099 10.2408 4.24948L10.0574 4.38545L9.8518 4.51575C9.44564 4.73761 9.00912 4.89611 8.55683 4.98596H8.39565C8.39565 4.91797 8.39565 4.85566 8.39565 4.78768C8.39615 4.55674 8.34681 4.32852 8.25115 4.11918C8.35226 3.9073 8.40544 3.67498 8.40677 3.43936C8.40677 2.47628 7.52863 1.6605 6.23922 1.27526C6.63023 1.1903 7.02879 1.14664 7.42859 1.14497C9.2849 1.14497 10.8522 2.04573 10.8522 3.11645C10.8524 3.2063 10.8412 3.29579 10.8189 3.38271L10.83 3.39971ZM2.94343 4.6857C2.87804 4.63571 2.84581 4.55247 2.86007 4.47043C2.85273 4.43876 2.85273 4.40579 2.86007 4.37412L2.94343 4.20416L3.0657 3.91524L3.16575 3.71696C3.17409 3.69677 3.18751 3.67919 3.20465 3.66597L3.27134 3.62065H3.35471H5.29995C5.85573 3.62065 6.27812 3.35439 6.27812 3.12211C6.25378 2.98576 6.16405 2.87091 6.03914 2.81619C5.81398 2.68657 5.55843 2.62193 5.29995 2.62924H4.57187H4.20506L4.0939 2.85585L4.055 2.9295L3.86603 3.26374C3.83058 3.33359 3.75977 3.37734 3.68262 3.37705C3.65167 3.38546 3.61909 3.38546 3.58814 3.37705C3.48583 3.32185 3.44617 3.193 3.49921 3.08812L3.57147 2.88984L3.66595 2.70856L3.69374 2.6519L3.81045 2.41963L3.87715 2.295C3.88549 2.27481 3.89891 2.25723 3.91605 2.24401C3.93506 2.22447 3.95774 2.20906 3.98274 2.19869C4.00649 2.19291 4.03125 2.19291 4.055 2.19869H5.27216C5.76541 2.16119 6.24528 2.37294 6.55601 2.76521C6.61188 2.84603 6.64807 2.93924 6.66161 3.03714C6.66436 3.06539 6.66436 3.09386 6.66161 3.12211C6.66707 3.17105 6.66707 3.22047 6.66161 3.26941C6.55281 3.59546 6.28909 3.84294 5.96133 3.92657C5.78377 3.99639 5.59579 4.03471 5.40555 4.03987H3.68262L3.47698 4.07386L3.34915 4.31747L3.22132 4.5724C3.18688 4.6432 3.11542 4.68734 3.03792 4.6857C3.00696 4.69411 2.97439 4.69411 2.94343 4.6857Z" fill="#959FAF"/>
<path d="M12.8053 -1.07397H-0.805176V13.2778H12.8053V-1.07397Z" fill="#6E7580"/>
</g>
</svg>
