<svg width="22" height="22" viewBox="0 0 22 22" fill="none" xmlns="http://www.w3.org/2000/svg">
<path d="M10.3246 14.0177C10.5175 14.0177 10.7105 14.0177 10.7105 14.2124C10.807 14.3097 10.807 14.5044 10.7105 14.6991C10.614 14.7965 10.4211 14.8938 10.3246 14.8938H3.66667C3.47368 14.8938 3.2807 14.6991 3.2807 14.5044C3.2807 14.3097 3.47368 14.115 3.66667 14.115H10.3246V14.0177ZM3.66667 11.9735C3.47368 11.9735 3.2807 11.7788 3.2807 11.5841C3.2807 11.3894 3.47368 11.1947 3.66667 11.1947H14.0877C14.1842 11.1947 14.2807 11.1947 14.3772 11.292C14.4737 11.3894 14.4737 11.4867 14.4737 11.5841C14.4737 11.6814 14.4737 11.7788 14.3772 11.8761C14.2807 11.9735 14.1842 11.9735 14.0877 11.9735H3.66667ZM3.66667 9.0531C3.47368 9.0531 3.2807 8.85841 3.2807 8.66372C3.2807 8.46903 3.47368 8.27434 3.66667 8.27434H14.0877C14.1842 8.27434 14.2807 8.27434 14.3772 8.37168C14.4737 8.46903 14.4737 8.56637 14.4737 8.66372C14.4737 8.85841 14.2807 9.0531 14.0877 9.0531H3.66667ZM21.2281 13.3363V14.8938H20.0702V13.3363H21.2281ZM1.15789 4.86726L5.01754 1.16814V4.0885C5.01754 4.57522 4.72807 4.86726 4.34211 4.86726H1.15789ZM1.54386 20.7345C1.15789 20.7345 0.868421 20.4425 0.868421 20.0531V5.74336H4.34211C5.21053 5.74336 5.88596 5.06195 5.88596 4.18584V0.876106H16.2105C16.4035 0.876106 16.5965 0.973451 16.693 1.0708C16.7895 1.16814 16.886 1.36283 16.886 1.55752V12.4602C14.9561 12.4602 13.2193 13.6283 12.5439 15.4779C11.8684 17.3274 12.2544 19.3717 13.6053 20.7345H1.54386ZM21.2281 21.2212H20.0702C20.0702 21.1239 20.0702 21.1239 20.0702 21.0265V19.6637H21.2281V21.2212ZM14.8596 17.3274C14.8596 18.5929 15.8246 19.5664 16.9825 19.7611H19.2982V21.1239C19.2982 21.2212 19.2982 21.2212 19.2982 21.3186H17.0789C16.7895 21.3186 16.5965 21.3186 16.307 21.2212C15.9211 21.1239 15.5351 21.0265 15.1491 20.8319C13.6053 19.9558 12.8333 18.2035 13.2193 16.4513C13.6053 14.6991 15.1491 13.531 16.886 13.4336H19.2018V14.9911H16.886C16.307 15.0885 15.8246 15.2832 15.4386 15.6726C15.0526 16.0619 14.8596 16.646 14.8596 17.3274ZM16.693 15.8673C16.7895 15.8673 16.886 15.7699 16.886 15.7699C16.9825 15.7699 17.0789 15.7699 17.1754 15.7699H21.614C21.807 15.7699 22 15.5752 22 15.3805V12.9469C22 12.8496 22 12.7522 21.9035 12.6549C21.807 12.5575 21.7105 12.5575 21.614 12.5575H17.8509V1.55752C17.8509 0.681416 17.1754 0 16.307 0H5.69298C5.30702 0 4.92105 0.19469 4.63158 0.389381L0.482456 4.28319C0.192982 4.57522 0 5.06195 0 5.45133V19.9558C0 20.8319 0.675439 21.5133 1.54386 21.5133H14.8596C15.5351 21.8053 16.2105 22 16.9825 22H21.5175C21.7105 22 21.9035 21.8053 21.9035 21.6106V19.2743C21.9035 19.0796 21.7105 18.885 21.5175 18.885H19.6842H19.5877H19.4912H17.1754H16.886C16.7895 18.885 16.693 18.885 16.693 18.7876C16.0175 18.5929 15.6316 18.0088 15.6316 17.3274C15.6316 16.9381 15.8246 16.5487 16.114 16.2566C16.307 16.0619 16.5 15.8673 16.693 15.8673Z" fill="#1C67F5"/>
</svg>
