<svg width="12" height="12" viewBox="0 0 12 12" fill="none" xmlns="http://www.w3.org/2000/svg">
<path fill-rule="evenodd" clip-rule="evenodd" d="M1.26051 4.45431C1.27373 4.49966 1.30203 4.53918 1.34075 4.56637C1.37081 4.57188 1.40163 4.57188 1.43169 4.56637H1.49054L2.97236 4.10212C3.07587 4.06663 3.13262 3.95577 3.10075 3.85132C3.08615 3.79991 3.05075 3.75689 3.00304 3.73259C2.95533 3.70829 2.89963 3.7049 2.84932 3.72325L1.88641 4.02208C2.63915 2.12322 4.54386 0.934673 6.58496 1.09016C8.62606 1.24564 10.3277 2.70891 10.7827 4.69977C10.8031 4.79191 10.8861 4.85675 10.9806 4.85452H11.0288C11.0799 4.84192 11.1239 4.80949 11.1511 4.76442C11.1782 4.71935 11.1861 4.66535 11.1732 4.61439C10.6557 2.46763 8.80467 0.901919 6.59689 0.743394C4.3891 0.58487 2.33238 1.87 1.51194 3.92069L1.19631 2.90682C1.18172 2.85541 1.14631 2.81239 1.0986 2.78808C1.05089 2.76378 0.995196 2.7604 0.944886 2.77875C0.837087 2.80975 0.774838 2.92199 0.805797 3.02955L1.26051 4.45431ZM4.75001 3.45138C4.9859 3.31504 5.27671 3.31423 5.51336 3.44925L8.18813 5.00742C8.42592 5.14202 8.57285 5.39371 8.57285 5.66643C8.57285 5.93916 8.42592 6.19085 8.18813 6.32545L5.51336 7.87828C5.40593 7.94079 5.28459 7.97563 5.16029 7.97966C5.02521 7.98014 4.89238 7.94517 4.77512 7.87828C4.52552 7.74894 4.3688 7.49182 4.36855 7.21125V4.11094C4.3688 3.83899 4.51412 3.58773 4.75001 3.45138ZM5.31004 7.48364L7.98481 5.93082C8.09823 5.86765 8.16851 5.74822 8.16851 5.61865C8.16851 5.48908 8.09823 5.36965 7.98481 5.30648L5.31004 3.75366C5.25802 3.72334 5.19909 3.70681 5.13885 3.70563C5.07502 3.7052 5.01222 3.72178 4.95697 3.75366C4.84167 3.81599 4.77134 3.93773 4.77508 4.06849V7.16881C4.77029 7.29842 4.83839 7.41988 4.95162 7.48364C5.06251 7.54751 5.19914 7.54751 5.31004 7.48364ZM10.7239 6.79693L11.1732 8.21635C11.19 8.268 11.1852 8.32418 11.1601 8.37232C11.1349 8.42046 11.0915 8.45654 11.0395 8.47248H10.9806C10.8932 8.47236 10.8157 8.41649 10.7881 8.33374L10.4724 7.33054C9.65104 9.3811 7.59344 10.6654 5.3855 10.5056C3.17757 10.3459 1.32731 8.77884 0.811167 6.63151C0.794922 6.56192 0.817126 6.48898 0.869417 6.44015C0.921708 6.39132 0.99614 6.37403 1.06468 6.39479C1.13321 6.41555 1.18544 6.47121 1.20168 6.54079C1.67038 8.51461 3.36434 9.95991 5.39185 10.1159C7.41935 10.2718 9.31541 9.10264 10.0819 7.22382L9.11366 7.52798C9.04169 7.56123 8.95691 7.54969 8.89651 7.49843C8.8361 7.44716 8.8111 7.36554 8.83246 7.28935C8.85383 7.21317 8.91767 7.15633 8.99597 7.14378L10.4724 6.67953C10.522 6.65847 10.578 6.65847 10.6276 6.67953C10.6758 6.70216 10.7112 6.7453 10.7239 6.79693Z" fill="#959FAF"/>
<mask id="mask0" mask-type="alpha" maskUnits="userSpaceOnUse" x="0" y="0" width="12" height="11">
<path fill-rule="evenodd" clip-rule="evenodd" d="M1.26051 4.45431C1.27373 4.49966 1.30203 4.53918 1.34075 4.56637C1.37081 4.57188 1.40163 4.57188 1.43169 4.56637H1.49054L2.97236 4.10212C3.07587 4.06663 3.13262 3.95577 3.10075 3.85132C3.08615 3.79991 3.05075 3.75689 3.00304 3.73259C2.95533 3.70829 2.89963 3.7049 2.84932 3.72325L1.88641 4.02208C2.63915 2.12322 4.54386 0.934673 6.58496 1.09016C8.62606 1.24564 10.3277 2.70891 10.7827 4.69977C10.8031 4.79191 10.8861 4.85675 10.9806 4.85452H11.0288C11.0799 4.84192 11.1239 4.80949 11.1511 4.76442C11.1782 4.71935 11.1861 4.66535 11.1732 4.61439C10.6557 2.46763 8.80467 0.901919 6.59689 0.743394C4.3891 0.58487 2.33238 1.87 1.51194 3.92069L1.19631 2.90682C1.18172 2.85541 1.14631 2.81239 1.0986 2.78808C1.05089 2.76378 0.995196 2.7604 0.944886 2.77875C0.837087 2.80975 0.774838 2.92199 0.805797 3.02955L1.26051 4.45431ZM4.75001 3.45138C4.9859 3.31504 5.27671 3.31423 5.51336 3.44925L8.18813 5.00742C8.42592 5.14202 8.57285 5.39371 8.57285 5.66643C8.57285 5.93916 8.42592 6.19085 8.18813 6.32545L5.51336 7.87828C5.40593 7.94079 5.28459 7.97563 5.16029 7.97966C5.02521 7.98014 4.89238 7.94517 4.77512 7.87828C4.52552 7.74894 4.3688 7.49182 4.36855 7.21125V4.11094C4.3688 3.83899 4.51412 3.58773 4.75001 3.45138ZM5.31004 7.48364L7.98481 5.93082C8.09823 5.86765 8.16851 5.74822 8.16851 5.61865C8.16851 5.48908 8.09823 5.36965 7.98481 5.30648L5.31004 3.75366C5.25802 3.72334 5.19909 3.70681 5.13885 3.70563C5.07502 3.7052 5.01222 3.72178 4.95697 3.75366C4.84167 3.81599 4.77134 3.93773 4.77508 4.06849V7.16881C4.77029 7.29842 4.83839 7.41988 4.95162 7.48364C5.06251 7.54751 5.19914 7.54751 5.31004 7.48364ZM10.7239 6.79693L11.1732 8.21635C11.19 8.268 11.1852 8.32418 11.1601 8.37232C11.1349 8.42046 11.0915 8.45654 11.0395 8.47248H10.9806C10.8932 8.47236 10.8157 8.41649 10.7881 8.33374L10.4724 7.33054C9.65104 9.3811 7.59344 10.6654 5.3855 10.5056C3.17757 10.3459 1.32731 8.77884 0.811167 6.63151C0.794922 6.56192 0.817126 6.48898 0.869417 6.44015C0.921708 6.39132 0.99614 6.37403 1.06468 6.39479C1.13321 6.41555 1.18544 6.47121 1.20168 6.54079C1.67038 8.51461 3.36434 9.95991 5.39185 10.1159C7.41935 10.2718 9.31541 9.10264 10.0819 7.22382L9.11366 7.52798C9.04169 7.56123 8.95691 7.54969 8.89651 7.49843C8.8361 7.44716 8.8111 7.36554 8.83246 7.28935C8.85383 7.21317 8.91767 7.15633 8.99597 7.14378L10.4724 6.67953C10.522 6.65847 10.578 6.65847 10.6276 6.67953C10.6758 6.70216 10.7112 6.7453 10.7239 6.79693Z" fill="white"/>
</mask>
<g mask="url(#mask0)">
<rect x="-0.515625" y="-0.585205" width="13.0315" height="13.4808" fill="#6E7580"/>
</g>
</svg>
