<svg width="25" height="25" viewBox="0 0 25 25" fill="none" xmlns="http://www.w3.org/2000/svg">
<path d="M12.3246 16.0177C12.5175 16.0177 12.7105 16.0177 12.7105 16.2124C12.807 16.3097 12.807 16.5044 12.7105 16.6991C12.614 16.7965 12.4211 16.8938 12.3246 16.8938H5.66667C5.47368 16.8938 5.2807 16.6991 5.2807 16.5044C5.2807 16.3097 5.47368 16.115 5.66667 16.115H12.3246V16.0177ZM5.66667 13.9735C5.47368 13.9735 5.2807 13.7788 5.2807 13.5841C5.2807 13.3894 5.47368 13.1947 5.66667 13.1947H16.0877C16.1842 13.1947 16.2807 13.1947 16.3772 13.292C16.4737 13.3894 16.4737 13.4867 16.4737 13.5841C16.4737 13.6814 16.4737 13.7788 16.3772 13.8761C16.2807 13.9735 16.1842 13.9735 16.0877 13.9735H5.66667ZM5.66667 11.0531C5.47368 11.0531 5.2807 10.8584 5.2807 10.6637C5.2807 10.469 5.47368 10.2743 5.66667 10.2743H16.0877C16.1842 10.2743 16.2807 10.2743 16.3772 10.3717C16.4737 10.469 16.4737 10.5664 16.4737 10.6637C16.4737 10.8584 16.2807 11.0531 16.0877 11.0531H5.66667ZM23.2281 15.3363V16.8938H22.0702V15.3363H23.2281ZM3.15789 6.86726L7.01754 3.16814V6.0885C7.01754 6.57522 6.72807 6.86726 6.34211 6.86726H3.15789ZM3.54386 22.7345C3.15789 22.7345 2.86842 22.4425 2.86842 22.0531V7.74336H6.34211C7.21053 7.74336 7.88596 7.06195 7.88596 6.18584V2.87611H18.2105C18.4035 2.87611 18.5965 2.97345 18.693 3.0708C18.7895 3.16814 18.886 3.36283 18.886 3.55752V14.4602C16.9561 14.4602 15.2193 15.6283 14.5439 17.4779C13.8684 19.3274 14.2544 21.3717 15.6053 22.7345H3.54386ZM23.2281 23.2212H22.0702C22.0702 23.1239 22.0702 23.1239 22.0702 23.0265V21.6637H23.2281V23.2212ZM16.8596 19.3274C16.8596 20.5929 17.8246 21.5664 18.9825 21.7611H21.2982V23.1239C21.2982 23.2212 21.2982 23.2212 21.2982 23.3186H19.0789C18.7895 23.3186 18.5965 23.3186 18.307 23.2212C17.9211 23.1239 17.5351 23.0265 17.1491 22.8319C15.6053 21.9558 14.8333 20.2035 15.2193 18.4513C15.6053 16.6991 17.1491 15.531 18.886 15.4336H21.2018V16.9911H18.886C18.307 17.0885 17.8246 17.2832 17.4386 17.6726C17.0526 18.0619 16.8596 18.646 16.8596 19.3274ZM18.693 17.8673C18.7895 17.8673 18.886 17.7699 18.886 17.7699C18.9825 17.7699 19.0789 17.7699 19.1754 17.7699H23.614C23.807 17.7699 24 17.5752 24 17.3805V14.9469C24 14.8496 24 14.7522 23.9035 14.6549C23.807 14.5575 23.7105 14.5575 23.614 14.5575H19.8509V3.55752C19.8509 2.68142 19.1754 2 18.307 2H7.69298C7.30702 2 6.92105 2.19469 6.63158 2.38938L2.48246 6.28319C2.19298 6.57522 2 7.06195 2 7.45133V21.9558C2 22.8319 2.67544 23.5133 3.54386 23.5133H16.8596C17.5351 23.8053 18.2105 24 18.9825 24H23.5175C23.7105 24 23.9035 23.8053 23.9035 23.6106V21.2743C23.9035 21.0796 23.7105 20.885 23.5175 20.885H21.6842H21.5877H21.4912H19.1754H18.886C18.7895 20.885 18.693 20.885 18.693 20.7876C18.0175 20.5929 17.6316 20.0088 17.6316 19.3274C17.6316 18.9381 17.8246 18.5487 18.114 18.2566C18.307 18.0619 18.5 17.8673 18.693 17.8673Z" fill="#1C67F5"/>
</svg>
