<svg width="10" height="10" viewBox="0 0 10 10" fill="none" xmlns="http://www.w3.org/2000/svg">
<g clip-path="url(#clip0)">
<path d="M4.05859 0H0.292969C0.131172 0 0 0.131172 0 0.292969V4.05861C0 4.22041 0.131172 4.35158 0.292969 4.35158H4.05859C4.22037 4.35158 4.35156 4.22041 4.35156 4.05861V0.292969C4.35156 0.131172 4.22037 0 4.05859 0ZM3.76562 3.76564H0.585938V0.585938H3.76562V3.76564Z" fill="#1E6AF6"/>
<path d="M4.05859 5.64844H0.292969C0.131172 5.64844 0 5.77961 0 5.94141V9.70703C0 9.86883 0.131172 10 0.292969 10H4.05859C4.22037 10 4.35156 9.86883 4.35156 9.70703V5.94141C4.35156 5.77961 4.22037 5.64844 4.05859 5.64844ZM3.76562 9.41406H0.585938V6.23437H3.76562V9.41406Z" fill="#1E6AF6"/>
<path d="M9.70703 0H5.94141C5.77959 0 5.64844 0.131172 5.64844 0.292969V4.05861C5.64844 4.22041 5.77959 4.35158 5.94141 4.35158H9.70703C9.86883 4.35158 10 4.22041 10 4.05861V0.292969C10 0.131172 9.86883 0 9.70703 0ZM9.41406 3.76564H6.23437V0.585938H9.41406V3.76564Z" fill="#1E6AF6"/>
<path d="M9.70639 7.53125C9.54459 7.53125 9.41342 7.66242 9.41342 7.82422V9.41402H8.45117C8.28936 9.41402 8.1582 9.5452 8.1582 9.70699C8.1582 9.86879 8.28936 9.99996 8.45117 9.99996H9.70639C9.86818 9.99996 9.99936 9.86879 9.99936 9.70699V7.82422C9.99936 7.6624 9.86818 7.53125 9.70639 7.53125Z" fill="#1E6AF6"/>
<path d="M7.19664 5.64844H5.94141C5.77959 5.64844 5.64844 5.77961 5.64844 5.94141V7.82424C5.64844 7.98604 5.77959 8.11721 5.94141 8.11721C6.10318 8.11721 6.23438 7.98604 6.23438 7.82424V6.23438H7.19664C7.35842 6.23438 7.48961 6.1032 7.48961 5.94141C7.48961 5.77961 7.35842 5.64844 7.19664 5.64844Z" fill="#1E6AF6"/>
<path d="M2.38301 1.96875C2.3285 1.91426 2.25293 1.88281 2.17576 1.88281C2.09863 1.88281 2.02324 1.91426 1.96855 1.96875C1.91406 2.02324 1.88281 2.09881 1.88281 2.17578C1.88281 2.25293 1.91406 2.32852 1.96855 2.38301C2.02326 2.4375 2.09863 2.46893 2.17576 2.46893C2.25293 2.46893 2.3285 2.4375 2.38301 2.38301C2.43748 2.32852 2.46873 2.25293 2.46873 2.17578C2.46873 2.09883 2.43748 2.02324 2.38301 1.96875Z" fill="#1E6AF6"/>
<path d="M2.38301 7.61717C2.3283 7.56268 2.25293 7.53125 2.17576 7.53125C2.09863 7.53125 2.02324 7.56268 1.96855 7.61717C1.91406 7.67166 1.88281 7.74725 1.88281 7.82439C1.88281 7.90135 1.91406 7.97695 1.96855 8.03143C2.02326 8.08592 2.09863 8.11736 2.17576 8.11736C2.25293 8.11736 2.32832 8.08592 2.38301 8.03143C2.43748 7.97695 2.46873 7.90137 2.46873 7.82439C2.46873 7.74705 2.43748 7.67166 2.38301 7.61717Z" fill="#1E6AF6"/>
<path d="M8.03143 1.96875C7.97693 1.91426 7.90135 1.88281 7.82422 1.88281C7.74705 1.88281 7.67166 1.91426 7.61699 1.96875C7.5625 2.02324 7.53125 2.09881 7.53125 2.17578C7.53125 2.25293 7.5625 2.32852 7.61699 2.38301C7.67166 2.4375 7.74703 2.46893 7.82422 2.46893C7.90135 2.46893 7.97693 2.4375 8.03143 2.38301C8.08592 2.32852 8.11719 2.25293 8.11719 2.17578C8.11719 2.09883 8.08592 2.02324 8.03143 1.96875Z" fill="#1E6AF6"/>
<path d="M8.03143 7.61717C7.97693 7.56268 7.90135 7.53125 7.82422 7.53125C7.74705 7.53125 7.67166 7.56268 7.61717 7.61717C7.56248 7.67166 7.53125 7.74725 7.53125 7.82439C7.53125 7.90135 7.5625 7.97695 7.61717 8.03143C7.67166 8.08592 7.74705 8.11736 7.82422 8.11736C7.90135 8.11736 7.97693 8.08592 8.03143 8.03143C8.08592 7.97695 8.11719 7.90137 8.11719 7.82439C8.11719 7.74725 8.08592 7.67166 8.03143 7.61717Z" fill="#1E6AF6"/>
<path d="M9.7077 5.64844H9.08008C8.9183 5.64844 8.78711 5.77961 8.78711 5.94141C8.78711 6.1032 8.9183 6.23438 9.08008 6.23438H9.7077C9.86949 6.23438 10.0007 6.1032 10.0007 5.94141C10.0007 5.77961 9.86949 5.64844 9.7077 5.64844Z" fill="#1E6AF6"/>
<path d="M6.569 9.41406H5.94141C5.77959 9.41406 5.64844 9.54523 5.64844 9.70703C5.64844 9.86883 5.77959 10 5.94141 10H6.569C6.73078 10 6.86197 9.86883 6.86197 9.70703C6.86197 9.54523 6.73078 9.41406 6.569 9.41406Z" fill="#1E6AF6"/>
</g>
<defs>
<clipPath id="clip0">
<rect width="10" height="10" fill="white"/>
</clipPath>
</defs>
</svg>
