<svg width="25" height="25" viewBox="0 0 25 25" fill="none" xmlns="http://www.w3.org/2000/svg">
<path d="M20.4519 21.0195H4.63598C4.19665 21.0195 3.84519 20.8493 3.66946 20.5089C2.5272 18.7217 2 16.7642 2 14.7217C2 13.2749 2.2636 11.9131 2.79079 10.5514C3.31799 9.27485 4.10879 8.08336 5.07531 7.14719C6.04184 6.21102 7.1841 5.44506 8.41423 4.84932C11.0502 3.74294 14.0377 3.74294 16.5858 4.84932C17.9038 5.44506 19.046 6.21102 19.9247 7.14719C20.8912 8.08336 21.5941 9.27485 22.2092 10.5514C22.7364 11.828 23 13.2749 23 14.7217C23 16.7642 22.4728 18.7217 21.3305 20.5089C21.2427 20.8493 20.8912 21.0195 20.4519 21.0195ZM12.5439 4.84932C11.2259 4.84932 9.99582 5.10464 8.76569 5.61528C7.62343 6.12591 6.56904 6.89187 5.69038 7.74294C4.81172 8.594 4.10879 9.70038 3.58159 10.8919C3.14226 12.0834 2.87866 13.36 2.87866 14.7217C2.87866 16.6791 3.40586 18.4663 4.37239 20.0834C4.46025 20.1685 4.54812 20.1685 4.63598 20.1685H20.4519C20.5397 20.1685 20.6276 20.1685 20.7155 19.9983C21.682 18.3812 22.2092 16.594 22.2092 14.6366C22.2092 13.2748 21.9456 11.9983 21.4184 10.8068C20.8912 9.61528 20.1883 8.50889 19.3096 7.65783C18.431 6.80677 17.3766 6.04081 16.2343 5.53017C15.0921 5.10464 13.8619 4.84932 12.5439 4.84932ZM12.5439 19.5727C12.2803 19.5727 12.1046 19.5727 11.841 19.4876C11.1381 19.3174 10.6109 18.8919 10.2594 18.2961C9.90795 17.6153 9.82008 16.9344 9.99582 16.2536C10.1715 15.7429 10.4351 15.2323 10.8745 14.8919C11.2259 14.6366 11.5774 14.3812 12.0167 14.2961L13.0711 10.211C13.159 9.87059 13.3347 9.70038 13.5983 9.53017C13.8619 9.35996 14.2134 9.35996 14.477 9.44506C14.8285 9.44506 15.0042 9.70038 15.1799 9.9557C15.3556 10.211 15.3556 10.5514 15.2678 10.8068L14.2134 14.977C14.5649 15.2323 14.7406 15.6578 14.9163 15.9983C15.0921 16.5089 15.1799 17.0195 15.0042 17.6153C14.8285 18.2961 14.3891 18.8919 13.7741 19.2323C13.4226 19.4025 12.9833 19.5727 12.5439 19.5727ZM14.2134 10.211H14.1255C14.0377 10.2961 14.0377 10.2961 13.9498 10.3812L12.7197 15.0621H12.3682C12.0167 15.0621 11.6653 15.2323 11.4017 15.4876C11.1381 15.7429 10.9623 15.9983 10.7866 16.4238C10.6987 16.9344 10.6987 17.36 10.9623 17.7855C11.2259 18.211 11.5774 18.4663 12.0167 18.6366C12.4561 18.7217 12.8954 18.7217 13.3347 18.4663C13.7741 18.211 14.0377 17.8706 14.1255 17.36C14.2134 17.0195 14.2134 16.594 14.0377 16.2536C13.8619 15.9131 13.6862 15.6578 13.4226 15.4025L13.159 15.2323L14.3891 10.5514C14.3891 10.4663 14.3891 10.3812 14.3891 10.2961C14.3891 10.2961 14.3013 10.211 14.2134 10.211ZM19.749 16.594C19.2218 16.594 18.7824 16.4238 18.431 15.9983C18.0795 15.6578 17.9038 15.1472 17.9038 14.6366C17.9038 14.1259 18.0795 13.7004 18.431 13.2748C19.1339 12.5089 20.364 12.5089 21.0669 13.2748C21.4184 13.6153 21.5941 14.1259 21.5941 14.6366C21.5941 15.1472 21.4184 15.5727 21.0669 15.9983C20.7155 16.4238 20.2762 16.594 19.749 16.594ZM19.749 13.7004C19.4854 13.7004 19.2218 13.7855 19.046 14.0408C18.8703 14.211 18.7824 14.4663 18.7824 14.8068C18.7824 15.0621 18.8703 15.3174 19.046 15.5727C19.4854 15.9983 20.0126 15.9983 20.4519 15.5727C20.6276 15.4025 20.7155 15.1472 20.7155 14.8068C20.7155 14.5514 20.6276 14.2961 20.4519 14.0408C20.2762 13.7855 20.0126 13.7004 19.749 13.7004ZM5.33891 16.594C4.81172 16.594 4.37239 16.4238 4.02092 15.9983C3.66946 15.6578 3.49372 15.1472 3.49372 14.6366C3.49372 14.1259 3.66946 13.7004 4.02092 13.2748C4.72385 12.5089 5.95398 12.5089 6.6569 13.2748C7.00837 13.6153 7.1841 14.1259 7.1841 14.6366C7.1841 15.1472 7.00837 15.5727 6.6569 15.9983C6.30544 16.4238 5.86611 16.594 5.33891 16.594ZM5.33891 13.7004C5.07531 13.7004 4.81172 13.7855 4.63598 14.0408C4.46025 14.211 4.37239 14.4663 4.37239 14.8068C4.37239 15.0621 4.46025 15.3174 4.63598 15.5727C5.07531 15.9983 5.60251 15.9983 6.04184 15.5727C6.21757 15.4025 6.30544 15.1472 6.30544 14.8068C6.30544 14.5514 6.21757 14.2961 6.04184 14.0408C5.86611 13.7855 5.60251 13.7004 5.33891 13.7004ZM17.6402 11.4876C17.113 11.4876 16.6736 11.3174 16.3222 10.8919C15.9707 10.5514 15.795 10.0408 15.795 9.53017C15.795 9.01953 15.9707 8.594 16.3222 8.16847C17.0251 7.40251 18.2552 7.40251 18.9582 8.16847C19.3096 8.50889 19.4854 9.01953 19.4854 9.53017C19.4854 10.0408 19.3096 10.4663 18.9582 10.8919C18.6067 11.3174 18.0795 11.4876 17.6402 11.4876ZM16.9372 10.2961C17.3766 10.7217 17.9038 10.7217 18.3431 10.2961C18.5188 10.1259 18.6067 9.87059 18.6067 9.53017C18.6067 9.18974 18.5188 9.01953 18.3431 8.76421C17.9038 8.33868 17.3766 8.33868 16.9372 8.76421C16.7615 8.93442 16.6736 9.18974 16.6736 9.53017C16.6736 9.87059 16.6736 10.1259 16.9372 10.2961ZM7.53556 11.4876C7.00837 11.4876 6.56904 11.3174 6.21757 10.8919C5.86611 10.5514 5.69038 10.0408 5.69038 9.53017C5.69038 9.01953 5.77824 8.594 6.12971 8.25357C6.83264 7.48762 8.06276 7.48762 8.76569 8.25357C9.11715 8.594 9.29289 9.10464 9.29289 9.61528C9.29289 10.1259 9.20502 10.5514 8.85356 10.8919C8.50209 11.3174 7.9749 11.4876 7.53556 11.4876ZM7.53556 8.50889C7.27197 8.50889 7.00837 8.594 6.83264 8.84932C6.56904 9.01953 6.48117 9.27485 6.48117 9.53017C6.48117 9.78549 6.56904 10.0408 6.74477 10.2961C7.1841 10.7217 7.7113 10.7217 8.15063 10.2961C8.32636 10.1259 8.41423 9.87059 8.41423 9.53017C8.41423 9.18974 8.41423 9.01953 8.15063 8.84932C7.9749 8.594 7.79916 8.50889 7.53556 8.50889ZM12.5439 9.27485C12.0167 9.27485 11.5774 9.10464 11.2259 8.67911C10.8745 8.33868 10.6987 7.82804 10.6987 7.3174C10.6987 6.80677 10.8745 6.38123 11.2259 5.9557C11.9289 5.18974 13.159 5.18974 13.8619 5.9557C14.2134 6.29613 14.3891 6.80677 14.3891 7.3174C14.3891 7.82804 14.2134 8.25357 13.8619 8.67911C13.5105 9.10464 13.0711 9.27485 12.5439 9.27485ZM12.5439 6.29613C12.2803 6.29613 12.0167 6.38123 11.841 6.63655C11.6653 6.80677 11.5774 7.06208 11.5774 7.40251C11.5774 7.74294 11.6653 7.91315 11.841 8.16847C12.2803 8.594 12.8075 8.594 13.2469 8.16847C13.4226 7.91315 13.5105 7.65783 13.5105 7.40251C13.5105 7.14719 13.4226 6.80677 13.2469 6.63655C13.0711 6.38123 12.8075 6.29613 12.5439 6.29613Z" fill="#556486"/>
</svg>
