<svg width="21" height="18" viewBox="0 0 21 18" fill="none" xmlns="http://www.w3.org/2000/svg">
<path d="M18.4519 17.0195H2.63598C2.19665 17.0195 1.84519 16.8493 1.66946 16.5089C0.527197 14.7217 0 12.7642 0 10.7217C0 9.27485 0.263598 7.91315 0.790795 6.55145C1.31799 5.27485 2.10879 4.08336 3.07531 3.14719C4.04184 2.21102 5.1841 1.44506 6.41423 0.849318C9.05021 -0.257064 12.0377 -0.257064 14.5858 0.849318C15.9038 1.44506 17.046 2.21102 17.9247 3.14719C18.8912 4.08336 19.5941 5.27485 20.2092 6.55145C20.7364 7.82804 21 9.27485 21 10.7217C21 12.7642 20.4728 14.7217 19.3305 16.5089C19.2427 16.8493 18.8912 17.0195 18.4519 17.0195ZM10.5439 0.849318C9.22594 0.849318 7.99582 1.10464 6.76569 1.61528C5.62343 2.12591 4.56904 2.89187 3.69038 3.74294C2.81172 4.594 2.10879 5.70038 1.58159 6.89187C1.14226 8.08336 0.878661 9.35996 0.878661 10.7217C0.878661 12.6791 1.40586 14.4663 2.37239 16.0834C2.46025 16.1685 2.54812 16.1685 2.63598 16.1685H18.4519C18.5397 16.1685 18.6276 16.1685 18.7155 15.9983C19.682 14.3812 20.2092 12.594 20.2092 10.6366C20.2092 9.27485 19.9456 7.99825 19.4184 6.80677C18.8912 5.61528 18.1883 4.50889 17.3096 3.65783C16.431 2.80677 15.3766 2.04081 14.2343 1.53017C13.0921 1.10464 11.8619 0.849318 10.5439 0.849318ZM10.5439 15.5727C10.2803 15.5727 10.1046 15.5727 9.841 15.4876C9.13807 15.3174 8.61088 14.8919 8.25941 14.2961C7.90795 13.6153 7.82008 12.9344 7.99582 12.2536C8.17155 11.7429 8.43515 11.2323 8.87448 10.8919C9.22594 10.6366 9.57741 10.3812 10.0167 10.2961L11.0711 6.21102C11.159 5.87059 11.3347 5.70038 11.5983 5.53017C11.8619 5.35996 12.2134 5.35996 12.477 5.44506C12.8285 5.44506 13.0042 5.70038 13.1799 5.9557C13.3556 6.21102 13.3556 6.55145 13.2678 6.80677L12.2134 10.977C12.5649 11.2323 12.7406 11.6578 12.9163 11.9983C13.0921 12.5089 13.1799 13.0195 13.0042 13.6153C12.8285 14.2961 12.3891 14.8919 11.7741 15.2323C11.4226 15.4025 10.9833 15.5727 10.5439 15.5727ZM12.2134 6.21102H12.1255C12.0377 6.29613 12.0377 6.29613 11.9498 6.38123L10.7197 11.0621H10.3682C10.0167 11.0621 9.66527 11.2323 9.40167 11.4876C9.13807 11.7429 8.96234 11.9983 8.78661 12.4238C8.69874 12.9344 8.69874 13.36 8.96234 13.7855C9.22594 14.211 9.57741 14.4663 10.0167 14.6366C10.4561 14.7217 10.8954 14.7217 11.3347 14.4663C11.7741 14.211 12.0377 13.8706 12.1255 13.36C12.2134 13.0195 12.2134 12.594 12.0377 12.2536C11.8619 11.9131 11.6862 11.6578 11.4226 11.4025L11.159 11.2323L12.3891 6.55145C12.3891 6.46634 12.3891 6.38123 12.3891 6.29613C12.3891 6.29613 12.3013 6.21102 12.2134 6.21102ZM17.749 12.594C17.2218 12.594 16.7824 12.4238 16.431 11.9983C16.0795 11.6578 15.9038 11.1472 15.9038 10.6366C15.9038 10.1259 16.0795 9.70038 16.431 9.27485C17.1339 8.50889 18.364 8.50889 19.0669 9.27485C19.4184 9.61528 19.5941 10.1259 19.5941 10.6366C19.5941 11.1472 19.4184 11.5727 19.0669 11.9983C18.7155 12.4238 18.2762 12.594 17.749 12.594ZM17.749 9.70038C17.4854 9.70038 17.2218 9.78549 17.046 10.0408C16.8703 10.211 16.7824 10.4663 16.7824 10.8068C16.7824 11.0621 16.8703 11.3174 17.046 11.5727C17.4854 11.9983 18.0126 11.9983 18.4519 11.5727C18.6276 11.4025 18.7155 11.1472 18.7155 10.8068C18.7155 10.5514 18.6276 10.2961 18.4519 10.0408C18.2762 9.78549 18.0126 9.70038 17.749 9.70038ZM3.33891 12.594C2.81172 12.594 2.37239 12.4238 2.02092 11.9983C1.66946 11.6578 1.49372 11.1472 1.49372 10.6366C1.49372 10.1259 1.66946 9.70038 2.02092 9.27485C2.72385 8.50889 3.95398 8.50889 4.6569 9.27485C5.00837 9.61528 5.1841 10.1259 5.1841 10.6366C5.1841 11.1472 5.00837 11.5727 4.6569 11.9983C4.30544 12.4238 3.86611 12.594 3.33891 12.594ZM3.33891 9.70038C3.07531 9.70038 2.81172 9.78549 2.63598 10.0408C2.46025 10.211 2.37239 10.4663 2.37239 10.8068C2.37239 11.0621 2.46025 11.3174 2.63598 11.5727C3.07531 11.9983 3.60251 11.9983 4.04184 11.5727C4.21757 11.4025 4.30544 11.1472 4.30544 10.8068C4.30544 10.5514 4.21757 10.2961 4.04184 10.0408C3.86611 9.78549 3.60251 9.70038 3.33891 9.70038ZM15.6402 7.48762C15.113 7.48762 14.6736 7.3174 14.3222 6.89187C13.9707 6.55145 13.795 6.04081 13.795 5.53017C13.795 5.01953 13.9707 4.594 14.3222 4.16847C15.0251 3.40251 16.2552 3.40251 16.9582 4.16847C17.3096 4.50889 17.4854 5.01953 17.4854 5.53017C17.4854 6.04081 17.3096 6.46634 16.9582 6.89187C16.6067 7.3174 16.0795 7.48762 15.6402 7.48762ZM14.9372 6.29613C15.3766 6.72166 15.9038 6.72166 16.3431 6.29613C16.5188 6.12591 16.6067 5.87059 16.6067 5.53017C16.6067 5.18974 16.5188 5.01953 16.3431 4.76421C15.9038 4.33868 15.3766 4.33868 14.9372 4.76421C14.7615 4.93442 14.6736 5.18974 14.6736 5.53017C14.6736 5.87059 14.6736 6.12591 14.9372 6.29613ZM5.53556 7.48762C5.00837 7.48762 4.56904 7.3174 4.21757 6.89187C3.86611 6.55145 3.69038 6.04081 3.69038 5.53017C3.69038 5.01953 3.77824 4.594 4.12971 4.25357C4.83264 3.48762 6.06276 3.48762 6.76569 4.25357C7.11715 4.594 7.29289 5.10464 7.29289 5.61528C7.29289 6.12591 7.20502 6.55145 6.85356 6.89187C6.50209 7.3174 5.9749 7.48762 5.53556 7.48762ZM5.53556 4.50889C5.27197 4.50889 5.00837 4.594 4.83264 4.84932C4.56904 5.01953 4.48117 5.27485 4.48117 5.53017C4.48117 5.78549 4.56904 6.04081 4.74477 6.29613C5.1841 6.72166 5.7113 6.72166 6.15063 6.29613C6.32636 6.12591 6.41423 5.87059 6.41423 5.53017C6.41423 5.18974 6.41423 5.01953 6.15063 4.84932C5.9749 4.594 5.79916 4.50889 5.53556 4.50889ZM10.5439 5.27485C10.0167 5.27485 9.57741 5.10464 9.22594 4.67911C8.87448 4.33868 8.69874 3.82804 8.69874 3.3174C8.69874 2.80677 8.87448 2.38123 9.22594 1.9557C9.92887 1.18974 11.159 1.18974 11.8619 1.9557C12.2134 2.29613 12.3891 2.80677 12.3891 3.3174C12.3891 3.82804 12.2134 4.25357 11.8619 4.67911C11.5105 5.10464 11.0711 5.27485 10.5439 5.27485ZM10.5439 2.29613C10.2803 2.29613 10.0167 2.38123 9.841 2.63655C9.66527 2.80677 9.57741 3.06208 9.57741 3.40251C9.57741 3.74294 9.66527 3.91315 9.841 4.16847C10.2803 4.594 10.8075 4.594 11.2469 4.16847C11.4226 3.91315 11.5105 3.65783 11.5105 3.40251C11.5105 3.14719 11.4226 2.80677 11.2469 2.63655C11.0711 2.38123 10.8075 2.29613 10.5439 2.29613Z" fill="#556486"/>
</svg>
