<svg width="17" height="17" viewBox="0 0 17 17" fill="none" xmlns="http://www.w3.org/2000/svg">
<path d="M8.5 17C13.1944 17 17 13.1944 17 8.5C17 3.80558 13.1944 0 8.5 0C3.80558 0 0 3.80558 0 8.5C0 13.1944 3.80558 17 8.5 17Z" fill="#669BFF"/>
<path d="M9.48563 13H7.90859V5.97793H9.48563V13ZM7.81124 4.15427C7.81124 3.91198 7.88695 3.71079 8.03838 3.55071C8.19414 3.39063 8.4148 3.31058 8.70035 3.31058C8.98591 3.31058 9.20656 3.39063 9.36232 3.55071C9.51808 3.71079 9.59596 3.91198 9.59596 4.15427C9.59596 4.39223 9.51808 4.59126 9.36232 4.75134C9.20656 4.9071 8.98591 4.98498 8.70035 4.98498C8.4148 4.98498 8.19414 4.9071 8.03838 4.75134C7.88695 4.59126 7.81124 4.39223 7.81124 4.15427Z" fill="white"/>
</svg>
