<svg width="12" height="12" viewBox="0 0 12 12" fill="none" xmlns="http://www.w3.org/2000/svg">
<path fill-rule="evenodd" clip-rule="evenodd" d="M11.4788 8.35785C11.9977 6.93346 11.7559 5.34446 10.8363 4.13681C10.7803 4.07011 10.6904 4.04187 10.606 4.06445C10.3571 4.14361 10.1189 4.25298 9.8969 4.39008C9.60018 1.7496 7.25692 -0.184094 4.59387 0.0139447C1.93081 0.211983 -0.0974858 2.47076 0.00362074 5.12579C0.104727 7.78082 2.299 9.88043 4.96948 9.87742C5.47381 9.88808 5.97676 9.82095 6.46044 9.67843C6.46044 9.88321 6.44062 10.065 6.4278 10.1825C6.42326 10.2242 6.4196 10.2578 6.41801 10.2814C6.41389 10.3599 6.4505 10.435 6.51498 10.4804C6.58468 10.5191 6.66953 10.5191 6.73923 10.4804L7.79381 10.0161L7.50289 10.999C7.47796 11.0879 7.50901 11.1829 7.58168 11.2402C7.65774 11.2946 7.76018 11.2946 7.83624 11.2402L8.12109 11.0774L8.23625 11.8131C8.24685 11.901 8.30868 11.9743 8.39383 12H8.4908C8.55504 12.0005 8.61655 11.9742 8.6605 11.9276L9.15749 11.3608L9.30901 11.6563C9.35254 11.7377 9.44092 11.7853 9.53326 11.7769C9.62624 11.7694 9.70418 11.704 9.7272 11.6141L10.0181 10.6251L10.6545 11.59C10.6971 11.652 10.7669 11.6901 10.8424 11.6925C10.9214 11.6864 10.9931 11.644 11.0363 11.5779L11.0857 11.4886L11.0857 11.4886L11.0857 11.4885C11.1849 11.3095 11.3694 10.9766 11.5454 10.6312C11.74 10.2972 11.8927 9.9408 12 9.56989C11.9591 9.12128 11.7767 8.69702 11.4788 8.35785ZM9.37675 10.8848C9.34425 10.816 9.27712 10.7699 9.20099 10.7642C9.12809 10.7531 9.05466 10.7805 9.00704 10.8365L8.61309 11.2827L8.52218 10.6797C8.51196 10.6053 8.46382 10.5415 8.3949 10.5109C8.3631 10.5027 8.32973 10.5027 8.29793 10.5109C8.25766 10.5115 8.21814 10.5219 8.18277 10.541L8.10398 10.5893L8.20702 10.2214C8.3756 10.3904 8.58393 10.5148 8.8131 10.5832C9.04597 10.6405 9.28934 10.6405 9.52221 10.5832L9.41311 10.9511L9.37675 10.8848ZM9.90193 9.88334C9.97932 9.88475 10.0514 9.92283 10.0959 9.98585L10.7929 11.0713C11.0803 10.5831 11.3237 10.0706 11.5202 9.53963C11.4595 9.156 11.2962 8.79568 11.0474 8.49643C10.9999 8.4392 10.9861 8.36135 11.0111 8.29141C11.4816 7.04372 11.3239 5.64738 10.5868 4.53469C10.3541 4.63129 10.1327 4.75259 9.92618 4.89649C9.75651 5.00746 9.59817 5.1347 9.45343 5.27638C8.83373 5.87427 8.39848 6.63576 8.19885 7.47132C8.17835 7.54372 8.12429 7.60199 8.05339 7.6281C7.69038 7.7428 7.36423 7.95081 7.10791 8.23111C7.03878 8.4669 6.99609 8.70958 6.98063 8.95471C6.97421 9.01224 6.9693 9.07655 6.96429 9.14204C6.95514 9.2619 6.94568 9.38574 6.92608 9.47933C6.89578 9.62405 6.89578 9.7748 6.89578 9.91349L8.06551 9.39491C8.17937 9.34785 8.31028 9.39836 8.36249 9.50948C8.48215 9.7645 8.70654 9.95579 8.97819 10.0343C9.24983 10.1129 9.54232 10.071 9.78072 9.91952C9.81664 9.89581 9.85882 9.88322 9.90193 9.88334ZM4.96862 9.43121C2.51238 9.43424 0.506784 7.47838 0.460654 5.03503C0.414523 2.59168 2.34488 0.562261 4.7995 0.473517C7.25412 0.384773 9.32743 2.26944 9.45967 4.70968C8.64072 5.36122 8.05423 6.25764 7.78689 7.26642C7.49597 7.38702 6.84747 7.68249 6.68988 8.05636C6.58362 8.4155 6.52055 8.78592 6.502 9.15985C6.01208 9.34573 5.49292 9.44373 4.96862 9.4493V9.43121ZM9.7215 6.37393C9.83153 6.36327 9.9426 6.3735 10.0488 6.40408L10.067 6.39805C10.2971 6.46637 10.4905 6.6231 10.6042 6.83358C10.7179 7.04406 10.7427 7.29094 10.673 7.51964C10.6071 7.75018 10.4495 7.94399 10.2367 8.05632C10.1042 8.13272 9.95344 8.17229 9.80029 8.17089C9.71416 8.17073 9.62848 8.15855 9.54574 8.13471C9.3407 8.07617 9.16406 7.94543 9.04876 7.76687C8.92775 7.59021 8.87403 7.3764 8.89724 7.16387C8.90435 7.11506 8.91447 7.06673 8.92754 7.01915C8.96944 6.87596 9.04651 6.74541 9.15179 6.63926C9.30262 6.48438 9.50535 6.38997 9.7215 6.37393ZM10.2298 7.39882C10.1951 7.51396 10.1169 7.61123 10.0116 7.67017C9.90487 7.72427 9.78181 7.73716 9.66611 7.70635C9.47357 7.64443 9.34199 7.46746 9.33883 7.26616C9.33299 7.2181 9.33299 7.16951 9.33883 7.12144C9.36547 7.0287 9.42322 6.94784 9.50247 6.8923C9.58039 6.83143 9.67616 6.79755 9.77521 6.79582H9.90249C10.0999 6.85089 10.2346 7.03211 10.2298 7.23601C10.2397 7.28983 10.2397 7.345 10.2298 7.39882ZM7.29776 2.92618C7.64836 3.2784 7.84289 3.75546 7.83804 4.25117C7.81174 5.25801 6.98363 6.06052 5.97131 6.06018H3.45002L3.03789 7.40488C3.00421 7.48958 2.92331 7.5464 2.83182 7.5496H2.76515C2.64546 7.51199 2.57808 7.38596 2.61363 7.26619L3.14698 5.73456V5.69235V5.6622L3.18334 5.63205H3.23183H5.97131C6.4968 5.66635 6.99783 5.40689 7.27103 4.95897C7.54424 4.51104 7.54424 3.94908 7.27103 3.50115C6.99783 3.05323 6.4968 2.79377 5.97131 2.82808H4.45005L4.1955 3.64816L3.92276 4.44413C3.89599 4.53908 3.80974 4.60527 3.71063 4.60694H3.64397C3.56872 4.57187 3.5183 4.49919 3.51202 4.41675C3.50575 4.33431 3.54459 4.25491 3.61366 4.20896L3.85609 3.40093L4.15913 2.41803V2.37582C4.17314 2.37306 4.18755 2.37306 4.20156 2.37582H4.25005H5.97131C6.46956 2.3758 6.94715 2.57395 7.29776 2.92618Z" fill="#959FAF"/>
<mask id="mask0" mask-type="alpha" maskUnits="userSpaceOnUse" x="0" y="0" width="13" height="12">
<path fill-rule="evenodd" clip-rule="evenodd" d="M11.4788 8.35785C11.9977 6.93346 11.7559 5.34446 10.8363 4.13681C10.7803 4.07011 10.6904 4.04187 10.606 4.06445C10.3571 4.14361 10.1189 4.25298 9.8969 4.39008C9.60018 1.7496 7.25692 -0.184094 4.59387 0.0139447C1.93081 0.211983 -0.0974858 2.47076 0.00362074 5.12579C0.104727 7.78082 2.299 9.88043 4.96948 9.87742C5.47381 9.88808 5.97676 9.82095 6.46044 9.67843C6.46044 9.88321 6.44062 10.065 6.4278 10.1825C6.42326 10.2242 6.4196 10.2578 6.41801 10.2814C6.41389 10.3599 6.4505 10.435 6.51498 10.4804C6.58468 10.5191 6.66953 10.5191 6.73923 10.4804L7.79381 10.0161L7.50289 10.999C7.47796 11.0879 7.50901 11.1829 7.58168 11.2402C7.65774 11.2946 7.76018 11.2946 7.83624 11.2402L8.12109 11.0774L8.23625 11.8131C8.24685 11.901 8.30868 11.9743 8.39383 12H8.4908C8.55504 12.0005 8.61655 11.9742 8.6605 11.9276L9.15749 11.3608L9.30901 11.6563C9.35254 11.7377 9.44092 11.7853 9.53326 11.7769C9.62624 11.7694 9.70418 11.704 9.7272 11.6141L10.0181 10.6251L10.6545 11.59C10.6971 11.652 10.7669 11.6901 10.8424 11.6925C10.9214 11.6864 10.9931 11.644 11.0363 11.5779L11.0857 11.4886L11.0857 11.4886L11.0857 11.4885C11.1849 11.3095 11.3694 10.9766 11.5454 10.6312C11.74 10.2972 11.8927 9.9408 12 9.56989C11.9591 9.12128 11.7767 8.69702 11.4788 8.35785ZM9.37675 10.8848C9.34425 10.816 9.27712 10.7699 9.20099 10.7642C9.12809 10.7531 9.05466 10.7805 9.00704 10.8365L8.61309 11.2827L8.52218 10.6797C8.51196 10.6053 8.46382 10.5415 8.3949 10.5109C8.3631 10.5027 8.32973 10.5027 8.29793 10.5109C8.25766 10.5115 8.21814 10.5219 8.18277 10.541L8.10398 10.5893L8.20702 10.2214C8.3756 10.3904 8.58393 10.5148 8.8131 10.5832C9.04597 10.6405 9.28934 10.6405 9.52221 10.5832L9.41311 10.9511L9.37675 10.8848ZM9.90193 9.88334C9.97932 9.88475 10.0514 9.92283 10.0959 9.98585L10.7929 11.0713C11.0803 10.5831 11.3237 10.0706 11.5202 9.53963C11.4595 9.156 11.2962 8.79568 11.0474 8.49643C10.9999 8.4392 10.9861 8.36135 11.0111 8.29141C11.4816 7.04372 11.3239 5.64738 10.5868 4.53469C10.3541 4.63129 10.1327 4.75259 9.92618 4.89649C9.75651 5.00746 9.59817 5.1347 9.45343 5.27638C8.83373 5.87427 8.39848 6.63576 8.19885 7.47132C8.17835 7.54372 8.12429 7.60199 8.05339 7.6281C7.69038 7.7428 7.36423 7.95081 7.10791 8.23111C7.03878 8.4669 6.99609 8.70958 6.98063 8.95471C6.97421 9.01224 6.9693 9.07655 6.96429 9.14204C6.95514 9.2619 6.94568 9.38574 6.92608 9.47933C6.89578 9.62405 6.89578 9.7748 6.89578 9.91349L8.06551 9.39491C8.17937 9.34785 8.31028 9.39836 8.36249 9.50948C8.48215 9.7645 8.70654 9.95579 8.97819 10.0343C9.24983 10.1129 9.54232 10.071 9.78072 9.91952C9.81664 9.89581 9.85882 9.88322 9.90193 9.88334ZM4.96862 9.43121C2.51238 9.43424 0.506784 7.47838 0.460654 5.03503C0.414523 2.59168 2.34488 0.562261 4.7995 0.473517C7.25412 0.384773 9.32743 2.26944 9.45967 4.70968C8.64072 5.36122 8.05423 6.25764 7.78689 7.26642C7.49597 7.38702 6.84747 7.68249 6.68988 8.05636C6.58362 8.4155 6.52055 8.78592 6.502 9.15985C6.01208 9.34573 5.49292 9.44373 4.96862 9.4493V9.43121ZM9.7215 6.37393C9.83153 6.36327 9.9426 6.3735 10.0488 6.40408L10.067 6.39805C10.2971 6.46637 10.4905 6.6231 10.6042 6.83358C10.7179 7.04406 10.7427 7.29094 10.673 7.51964C10.6071 7.75018 10.4495 7.94399 10.2367 8.05632C10.1042 8.13272 9.95344 8.17229 9.80029 8.17089C9.71416 8.17073 9.62848 8.15855 9.54574 8.13471C9.3407 8.07617 9.16406 7.94543 9.04876 7.76687C8.92775 7.59021 8.87403 7.3764 8.89724 7.16387C8.90435 7.11506 8.91447 7.06673 8.92754 7.01915C8.96944 6.87596 9.04651 6.74541 9.15179 6.63926C9.30262 6.48438 9.50535 6.38997 9.7215 6.37393ZM10.2298 7.39882C10.1951 7.51396 10.1169 7.61123 10.0116 7.67017C9.90487 7.72427 9.78181 7.73716 9.66611 7.70635C9.47357 7.64443 9.34199 7.46746 9.33883 7.26616C9.33299 7.2181 9.33299 7.16951 9.33883 7.12144C9.36547 7.0287 9.42322 6.94784 9.50247 6.8923C9.58039 6.83143 9.67616 6.79755 9.77521 6.79582H9.90249C10.0999 6.85089 10.2346 7.03211 10.2298 7.23601C10.2397 7.28983 10.2397 7.345 10.2298 7.39882ZM7.29776 2.92618C7.64836 3.2784 7.84289 3.75546 7.83804 4.25117C7.81174 5.25801 6.98363 6.06052 5.97131 6.06018H3.45002L3.03789 7.40488C3.00421 7.48958 2.92331 7.5464 2.83182 7.5496H2.76515C2.64546 7.51199 2.57808 7.38596 2.61363 7.26619L3.14698 5.73456V5.69235V5.6622L3.18334 5.63205H3.23183H5.97131C6.4968 5.66635 6.99783 5.40689 7.27103 4.95897C7.54424 4.51104 7.54424 3.94908 7.27103 3.50115C6.99783 3.05323 6.4968 2.79377 5.97131 2.82808H4.45005L4.1955 3.64816L3.92276 4.44413C3.89599 4.53908 3.80974 4.60527 3.71063 4.60694H3.64397C3.56872 4.57187 3.5183 4.49919 3.51202 4.41675C3.50575 4.33431 3.54459 4.25491 3.61366 4.20896L3.85609 3.40093L4.15913 2.41803V2.37582C4.17314 2.37306 4.18755 2.37306 4.20156 2.37582H4.25005H5.97131C6.46956 2.3758 6.94715 2.57395 7.29776 2.92618Z" fill="white"/>
</mask>
<g mask="url(#mask0)">
<rect x="-1.26807" y="-1.27588" width="14.7641" height="15.1957" fill="#6E7580"/>
</g>
</svg>
