<svg width="12" height="11" viewBox="0 0 12 11" fill="none" xmlns="http://www.w3.org/2000/svg">
<mask id="mask0" mask-type="alpha" maskUnits="userSpaceOnUse" x="0" y="0" width="12" height="11">
<path d="M10.5514 1.48612H9.40761V0.947126C9.40551 0.846946 9.33038 0.763897 9.23205 0.753087C9.12041 0.753087 9.0299 0.844788 9.0299 0.957906V1.4969H2.99181V0.957906C3.00476 0.877817 2.96982 0.797534 2.90272 0.753212C2.83562 0.70889 2.74901 0.70889 2.68191 0.753212C2.61481 0.797534 2.57987 0.877817 2.59282 0.957906V1.4969H1.45436C1.05389 1.4939 0.72605 1.81883 0.720215 2.22455V10.0562C0.720215 10.467 1.0489 10.8 1.45436 10.8H10.5514C10.9548 10.797 11.2802 10.4649 11.2802 10.0562V2.22455C11.2802 1.81673 10.9539 1.48612 10.5514 1.48612ZM10.8812 10.0562C10.8812 10.2416 10.7344 10.3928 10.5514 10.3957H1.45436C1.26926 10.3957 1.11921 10.2437 1.11921 10.0562V4.1272H10.8812V10.0562ZM1.11921 3.75529V2.22455C1.12211 2.03912 1.27132 1.89035 1.45436 1.89037H2.59282V2.42936C2.60883 2.52838 2.69328 2.60107 2.79232 2.60107C2.89135 2.60107 2.9758 2.52838 2.99181 2.42936V1.89037H9.00862V2.42936C9.0115 2.54037 9.10117 2.62883 9.21077 2.62879C9.26298 2.62879 9.31304 2.60778 9.34996 2.57038C9.38687 2.53298 9.40761 2.48226 9.40761 2.42936V1.89037H10.5514C10.6389 1.89037 10.7228 1.92558 10.7846 1.98825C10.8465 2.05092 10.8812 2.13592 10.8812 2.22455V3.75529H1.11921ZM2.79498 5.9544C2.68118 5.95584 2.57156 5.91105 2.49059 5.83002C2.40962 5.749 2.36405 5.6385 2.36406 5.5232C2.36191 5.34614 2.46552 5.1853 2.62635 5.11602C2.78719 5.04675 2.9734 5.08276 3.09774 5.20719C3.22209 5.33161 3.25994 5.51981 3.19357 5.68362C3.1272 5.84742 2.96974 5.95438 2.79498 5.9544ZM9.23205 5.93823C9.11825 5.93824 9.00919 5.89207 8.92922 5.81003C8.84925 5.728 8.80504 5.61693 8.80646 5.50164C8.80647 5.32457 8.91205 5.16504 9.07372 5.0978C9.2354 5.03055 9.42115 5.0689 9.54396 5.19488C9.66677 5.32087 9.70231 5.50953 9.63394 5.67248C9.56556 5.83544 9.40681 5.94041 9.23205 5.93823ZM7.05621 5.9544C6.94242 5.95584 6.8328 5.91105 6.75183 5.83002C6.67086 5.749 6.62529 5.6385 6.6253 5.5232C6.62315 5.34614 6.72675 5.1853 6.88759 5.11602C7.04843 5.04675 7.23464 5.08276 7.35898 5.20719C7.48333 5.33161 7.52118 5.51981 7.45481 5.68362C7.38844 5.84742 7.23098 5.95438 7.05621 5.9544ZM4.92294 5.9544V5.93284C4.7048 5.90817 4.53983 5.72132 4.53983 5.49895C4.53983 5.27657 4.7048 5.08972 4.92294 5.06505C5.16533 5.06505 5.36183 5.26414 5.36183 5.50973C5.36183 5.75531 5.16533 5.9544 4.92294 5.9544ZM2.79498 7.76003C2.68118 7.76147 2.57156 7.71668 2.49059 7.63566C2.40962 7.55464 2.36405 7.44414 2.36406 7.32884C2.36408 7.0914 2.55356 6.89865 2.7879 6.89768C3.02225 6.8967 3.21329 7.08786 3.21523 7.32529C3.21718 7.56272 3.02931 7.75707 2.79498 7.76003ZM9.23205 7.71691C8.99701 7.71691 8.80646 7.52386 8.80646 7.28572C8.80431 7.10817 8.9085 6.94699 9.07 6.87804C9.23149 6.80909 9.41812 6.84609 9.54204 6.97165C9.66596 7.0972 9.70249 7.28628 9.63443 7.44991C9.56637 7.61353 9.40729 7.71909 9.23205 7.71691ZM7.05621 7.76003C6.94242 7.76147 6.8328 7.71668 6.75183 7.63566C6.67086 7.55464 6.62529 7.44414 6.6253 7.32884C6.62532 7.0914 6.81479 6.89865 7.04914 6.89768C7.28349 6.8967 7.47452 7.08786 7.47647 7.32529C7.47842 7.56272 7.29055 7.75707 7.05621 7.76003ZM4.92294 7.76003C4.68789 7.76003 4.49734 7.56698 4.49734 7.32884C4.49734 7.09069 4.68789 6.89764 4.92294 6.89764C5.15798 6.89764 5.34853 7.09069 5.34853 7.32884C5.34853 7.56698 5.15798 7.76003 4.92294 7.76003ZM2.79498 9.52794C2.68118 9.52938 2.57156 9.48459 2.49059 9.40357C2.40962 9.32255 2.36405 9.21204 2.36406 9.09674C2.36408 8.85931 2.55356 8.66656 2.7879 8.66558C3.02225 8.66461 3.21329 8.85577 3.21523 9.09319C3.21718 9.33062 3.02931 9.52497 2.79498 9.52794ZM9.23205 9.51177C8.99701 9.51177 8.80646 9.31872 8.80646 9.08057C8.80646 8.84243 8.99701 8.64938 9.23205 8.64938C9.4671 8.64938 9.65765 8.84243 9.65765 9.08057C9.65765 9.31872 9.4671 9.51177 9.23205 9.51177ZM7.05621 9.52794C6.94242 9.52938 6.8328 9.48459 6.75183 9.40357C6.67086 9.32255 6.62529 9.21204 6.6253 9.09674C6.62532 8.85931 6.81479 8.66656 7.04914 8.66558C7.28349 8.66461 7.47452 8.85577 7.47647 9.09319C7.47842 9.33062 7.29055 9.52497 7.05621 9.52794ZM4.92294 9.52794C4.68789 9.52794 4.49734 9.33489 4.49734 9.09674C4.49734 8.8586 4.68789 8.66555 4.92294 8.66555C5.15798 8.66555 5.34853 8.8586 5.34853 9.09674C5.34853 9.33489 5.15798 9.52794 4.92294 9.52794Z" fill="white"/>
</mask>
<g mask="url(#mask0)">
<path d="M10.5514 1.48612H9.40761V0.947126C9.40551 0.846946 9.33038 0.763897 9.23205 0.753087C9.12041 0.753087 9.0299 0.844788 9.0299 0.957906V1.4969H2.99181V0.957906C3.00476 0.877817 2.96982 0.797534 2.90272 0.753212C2.83562 0.70889 2.74901 0.70889 2.68191 0.753212C2.61481 0.797534 2.57987 0.877817 2.59282 0.957906V1.4969H1.45436C1.05389 1.4939 0.72605 1.81883 0.720215 2.22455V10.0562C0.720215 10.467 1.0489 10.8 1.45436 10.8H10.5514C10.9548 10.797 11.2802 10.4649 11.2802 10.0562V2.22455C11.2802 1.81673 10.9539 1.48612 10.5514 1.48612ZM10.8812 10.0562C10.8812 10.2416 10.7344 10.3928 10.5514 10.3957H1.45436C1.26926 10.3957 1.11921 10.2437 1.11921 10.0562V4.1272H10.8812V10.0562ZM1.11921 3.75529V2.22455C1.12211 2.03912 1.27132 1.89035 1.45436 1.89037H2.59282V2.42936C2.60883 2.52838 2.69328 2.60107 2.79232 2.60107C2.89135 2.60107 2.9758 2.52838 2.99181 2.42936V1.89037H9.00862V2.42936C9.0115 2.54037 9.10117 2.62883 9.21077 2.62879C9.26298 2.62879 9.31304 2.60778 9.34996 2.57038C9.38687 2.53298 9.40761 2.48226 9.40761 2.42936V1.89037H10.5514C10.6389 1.89037 10.7228 1.92558 10.7846 1.98825C10.8465 2.05092 10.8812 2.13592 10.8812 2.22455V3.75529H1.11921ZM2.79498 5.9544C2.68118 5.95584 2.57156 5.91105 2.49059 5.83002C2.40962 5.749 2.36405 5.6385 2.36406 5.5232C2.36191 5.34614 2.46552 5.1853 2.62635 5.11602C2.78719 5.04675 2.9734 5.08276 3.09774 5.20719C3.22209 5.33161 3.25994 5.51981 3.19357 5.68362C3.1272 5.84742 2.96974 5.95438 2.79498 5.9544ZM9.23205 5.93823C9.11825 5.93824 9.00919 5.89207 8.92922 5.81003C8.84925 5.728 8.80504 5.61693 8.80646 5.50164C8.80647 5.32457 8.91205 5.16504 9.07372 5.0978C9.2354 5.03055 9.42115 5.0689 9.54396 5.19488C9.66677 5.32087 9.70231 5.50953 9.63394 5.67248C9.56556 5.83544 9.40681 5.94041 9.23205 5.93823ZM7.05621 5.9544C6.94242 5.95584 6.8328 5.91105 6.75183 5.83002C6.67086 5.749 6.62529 5.6385 6.6253 5.5232C6.62315 5.34614 6.72675 5.1853 6.88759 5.11602C7.04843 5.04675 7.23464 5.08276 7.35898 5.20719C7.48333 5.33161 7.52118 5.51981 7.45481 5.68362C7.38844 5.84742 7.23098 5.95438 7.05621 5.9544ZM4.92294 5.9544V5.93284C4.7048 5.90817 4.53983 5.72132 4.53983 5.49895C4.53983 5.27657 4.7048 5.08972 4.92294 5.06505C5.16533 5.06505 5.36183 5.26414 5.36183 5.50973C5.36183 5.75531 5.16533 5.9544 4.92294 5.9544ZM2.79498 7.76003C2.68118 7.76147 2.57156 7.71668 2.49059 7.63566C2.40962 7.55464 2.36405 7.44414 2.36406 7.32884C2.36408 7.0914 2.55356 6.89865 2.7879 6.89768C3.02225 6.8967 3.21329 7.08786 3.21523 7.32529C3.21718 7.56272 3.02931 7.75707 2.79498 7.76003ZM9.23205 7.71691C8.99701 7.71691 8.80646 7.52386 8.80646 7.28572C8.80431 7.10817 8.9085 6.94699 9.07 6.87804C9.23149 6.80909 9.41812 6.84609 9.54204 6.97165C9.66596 7.0972 9.70249 7.28628 9.63443 7.44991C9.56637 7.61353 9.40729 7.71909 9.23205 7.71691ZM7.05621 7.76003C6.94242 7.76147 6.8328 7.71668 6.75183 7.63566C6.67086 7.55464 6.62529 7.44414 6.6253 7.32884C6.62532 7.0914 6.81479 6.89865 7.04914 6.89768C7.28349 6.8967 7.47452 7.08786 7.47647 7.32529C7.47842 7.56272 7.29055 7.75707 7.05621 7.76003ZM4.92294 7.76003C4.68789 7.76003 4.49734 7.56698 4.49734 7.32884C4.49734 7.09069 4.68789 6.89764 4.92294 6.89764C5.15798 6.89764 5.34853 7.09069 5.34853 7.32884C5.34853 7.56698 5.15798 7.76003 4.92294 7.76003ZM2.79498 9.52794C2.68118 9.52938 2.57156 9.48459 2.49059 9.40357C2.40962 9.32255 2.36405 9.21204 2.36406 9.09674C2.36408 8.85931 2.55356 8.66656 2.7879 8.66558C3.02225 8.66461 3.21329 8.85577 3.21523 9.09319C3.21718 9.33062 3.02931 9.52497 2.79498 9.52794ZM9.23205 9.51177C8.99701 9.51177 8.80646 9.31872 8.80646 9.08057C8.80646 8.84243 8.99701 8.64938 9.23205 8.64938C9.4671 8.64938 9.65765 8.84243 9.65765 9.08057C9.65765 9.31872 9.4671 9.51177 9.23205 9.51177ZM7.05621 9.52794C6.94242 9.52938 6.8328 9.48459 6.75183 9.40357C6.67086 9.32255 6.62529 9.21204 6.6253 9.09674C6.62532 8.85931 6.81479 8.66656 7.04914 8.66558C7.28349 8.66461 7.47452 8.85577 7.47647 9.09319C7.47842 9.33062 7.29055 9.52497 7.05621 9.52794ZM4.92294 9.52794C4.68789 9.52794 4.49734 9.33489 4.49734 9.09674C4.49734 8.8586 4.68789 8.66555 4.92294 8.66555C5.15798 8.66555 5.34853 8.8586 5.34853 9.09674C5.34853 9.33489 5.15798 9.52794 4.92294 9.52794Z" fill="#959FAF"/>
<path d="M13.712 -0.755127H0.720215V12.8616H13.712V-0.755127Z" fill="#6E7580"/>
</g>
</svg>
