<svg width="25" height="25" viewBox="0 0 25 25" fill="none" xmlns="http://www.w3.org/2000/svg">
<path fill-rule="evenodd" clip-rule="evenodd" d="M21.7696 8.92889C23.5321 11.2436 23.9957 14.2891 23.001 17.0192C23.572 17.6693 23.9217 18.4824 24 19.3423C23.7943 20.0532 23.5017 20.7363 23.1288 21.3764C22.7912 22.0386 22.4375 22.6769 22.2475 23.0199L22.2475 23.02L22.2474 23.02L22.2463 23.0221C22.208 23.0912 22.1764 23.1483 22.153 23.191C22.0702 23.3178 21.9328 23.3989 21.7812 23.4105C21.6366 23.4061 21.5027 23.333 21.4211 23.2141L20.2014 21.3649L19.6438 23.2603C19.5997 23.4327 19.4503 23.5581 19.2721 23.5724C19.0951 23.5884 18.9257 23.4973 18.8423 23.3412L18.5519 22.7749L17.5993 23.8613C17.5151 23.9506 17.3972 24.0009 17.274 24H17.0882C16.925 23.9508 16.8065 23.8102 16.7861 23.6417L16.5654 22.2317L16.0195 22.5437C15.8737 22.6479 15.6773 22.6479 15.5316 22.5437C15.3923 22.4339 15.3328 22.2517 15.3805 22.0814L15.9381 20.1975L13.9169 21.0875C13.7833 21.1616 13.6206 21.1616 13.487 21.0875C13.3635 21.0005 13.2933 20.8565 13.3012 20.7061C13.3042 20.6607 13.3112 20.5964 13.3199 20.5166L13.3199 20.5166L13.32 20.5165C13.3445 20.2912 13.3825 19.9428 13.3825 19.5503C12.4555 19.8235 11.4915 19.9521 10.5248 19.9317C5.40642 19.9375 1.20073 15.9132 1.00694 10.8244C0.813152 5.73563 4.70073 1.4063 9.80491 1.02673C14.9091 0.647153 19.4004 4.35339 19.9691 9.41431C20.3946 9.15154 20.8511 8.94192 21.3282 8.7902C21.4899 8.74692 21.6622 8.80104 21.7696 8.92889ZM18.6338 21.6309C18.7798 21.642 18.9084 21.7303 18.9707 21.8621L19.0404 21.9892L19.2495 21.2842C18.8032 21.3939 18.3367 21.3939 17.8904 21.2842C17.4512 21.1529 17.0519 20.9146 16.7287 20.5907L16.5313 21.2958L16.6823 21.2033C16.75 21.1665 16.8258 21.1467 16.903 21.1455C16.9639 21.1299 17.0279 21.1299 17.0888 21.1455C17.2209 21.2042 17.3132 21.3265 17.3328 21.4691L17.507 22.6249L18.2621 21.7696C18.3534 21.6623 18.4941 21.6097 18.6338 21.6309ZM20.3562 20.1396C20.2709 20.0188 20.1328 19.9458 19.9844 19.9431C19.9018 19.9429 19.821 19.967 19.7521 20.0125C19.2952 20.3029 18.7346 20.3831 18.2139 20.2325C17.6933 20.082 17.2632 19.7154 17.0339 19.2266C16.9338 19.0136 16.6829 18.9168 16.4646 19.007L14.2227 20.0009C14.2227 19.7351 14.2227 19.4462 14.2807 19.1688C14.3183 18.9894 14.3364 18.752 14.354 18.5223L14.354 18.5223L14.354 18.5222L14.354 18.5222C14.3636 18.3967 14.373 18.2735 14.3853 18.1633C14.4149 17.6934 14.4967 17.2283 14.6292 16.7764C15.1205 16.2391 15.7456 15.8404 16.4414 15.6206C16.5773 15.5705 16.6809 15.4589 16.7202 15.3201C17.1028 13.7186 17.9371 12.2591 19.1248 11.1131C19.4022 10.8416 19.7057 10.5977 20.0309 10.385C20.4267 10.1092 20.8512 9.8767 21.2971 9.69155C22.7099 11.8242 23.0121 14.5005 22.1103 16.8919C22.0624 17.026 22.0889 17.1752 22.18 17.2849C22.6568 17.8584 22.9698 18.5491 23.0861 19.2843C22.7095 20.302 22.243 21.2844 21.6921 22.22L20.3562 20.1396ZM1.88436 10.6503C1.97278 15.3334 5.81684 19.0821 10.5246 19.0763V19.111C11.5295 19.1003 12.5246 18.9125 13.4636 18.5562C13.4992 17.8395 13.62 17.1296 13.8237 16.4412C14.1258 15.7246 15.3687 15.1583 15.9263 14.9272C16.4387 12.9937 17.5628 11.2755 19.1325 10.0267C18.879 5.34962 14.9052 1.73733 10.2005 1.90743C5.4958 2.07752 1.79595 5.96724 1.88436 10.6503ZM20.2602 13.2747C20.0567 13.2161 19.8438 13.1965 19.6329 13.2169C19.2186 13.2477 18.8301 13.4286 18.541 13.7255C18.3392 13.9289 18.1915 14.1792 18.1112 14.4536C18.0861 14.5448 18.0667 14.6374 18.0531 14.731C18.0086 15.1383 18.1116 15.5481 18.3435 15.8867C18.5645 16.229 18.9031 16.4796 19.2961 16.5918C19.4546 16.6374 19.6189 16.6608 19.784 16.6611C20.0775 16.6638 20.3664 16.588 20.6203 16.4415C21.0283 16.2262 21.3303 15.8547 21.4567 15.4129C21.5903 14.9745 21.5428 14.5013 21.3248 14.0979C21.1068 13.6945 20.7362 13.3941 20.2951 13.2632L20.2602 13.2747ZM20.1924 15.7014C20.3942 15.5885 20.5441 15.402 20.6106 15.1813C20.6295 15.0782 20.6295 14.9724 20.6106 14.8693C20.6198 14.4785 20.3616 14.1311 19.9833 14.0256H19.7393C19.5495 14.0289 19.3659 14.0938 19.2166 14.2105C19.0647 14.3169 18.954 14.4719 18.9029 14.6497C18.8917 14.7418 18.8917 14.8349 18.9029 14.9271C18.909 15.3129 19.1612 15.6521 19.5302 15.7708C19.752 15.8298 19.9878 15.8051 20.1924 15.7014Z" fill="#1E6AF6"/>
<path d="M16.0199 9.14867C16.0292 8.19858 15.6564 7.28421 14.9844 6.60912C14.3124 5.93402 13.397 5.55422 12.442 5.55426H9.14293H9.05C9.02315 5.54897 8.99553 5.54897 8.96868 5.55426V5.63517L8.38786 7.51905L7.9232 9.06777C7.7908 9.15584 7.71636 9.30804 7.72839 9.46604C7.74042 9.62404 7.83706 9.76335 7.98128 9.83057H8.10906C8.29901 9.82738 8.46432 9.7005 8.51564 9.51852L9.03838 7.99291L9.52628 6.42108H12.442C13.4492 6.35533 14.4095 6.85263 14.9332 7.71115C15.4568 8.56967 15.4568 9.64677 14.9332 10.5053C14.4095 11.3638 13.4492 11.8611 12.442 11.7954H7.19135H7.09842L7.02872 11.8531V11.9109V11.9918L6.00647 14.9275C5.93832 15.157 6.06747 15.3986 6.29688 15.4707H6.42466C6.60003 15.4645 6.75509 15.3556 6.81963 15.1933L7.60955 12.6159H12.442C14.3823 12.6166 15.9695 11.0785 16.0199 9.14867Z" fill="#1E6AF6"/>
</svg>
