<svg width="9" height="8" viewBox="0 0 9 8" fill="none" xmlns="http://www.w3.org/2000/svg">
<path d="M8.03779 3.65389L5.30487 0.926222C5.26531 0.88638 5.21826 0.854725 5.16642 0.833074C5.11458 0.811422 5.05897 0.8002 5.00277 0.80005C4.94658 0.799901 4.89091 0.810827 4.83895 0.832201C4.787 0.853576 4.73978 0.88498 4.70001 0.924611C4.66023 0.964241 4.62869 1.01132 4.60718 1.06315C4.58568 1.11497 4.57463 1.17053 4.57468 1.22663C4.57473 1.28273 4.58587 1.33826 4.60746 1.39005C4.62905 1.44184 4.66068 1.48887 4.70052 1.52843L6.69945 3.52302H1.22659C1.11345 3.52302 1.00494 3.56788 0.924937 3.64775C0.844933 3.72762 0.799988 3.83594 0.799988 3.94888C0.799988 4.06183 0.844933 4.17015 0.924937 4.25002C1.00494 4.32988 1.11345 4.37475 1.22659 4.37475H6.71187L4.80605 6.2773C4.76644 6.31692 4.73504 6.36393 4.71363 6.41566C4.69222 6.46739 4.68123 6.52283 4.68128 6.5788C4.68133 6.63477 4.69243 6.69018 4.71393 6.74187C4.73543 6.79356 4.76693 6.84052 4.80661 6.88006C4.84629 6.9196 4.89339 6.95095 4.94521 6.97232C4.99703 6.9937 5.05256 7.00467 5.10862 7.00462C5.16469 7.00456 5.2202 6.99349 5.27198 6.97202C5.32376 6.95056 5.3708 6.91912 5.41041 6.8795L8.03779 4.25609C8.11757 4.17612 8.16236 4.06785 8.16236 3.95499C8.16236 3.84213 8.11757 3.73386 8.03779 3.65389Z" fill="#333333"/>
</svg>
